<?xml version="1.0" standalone="no"?>
<!DOCTYPE svg PUBLIC "-//W3C//DTD SVG 20010904//EN"
 "http://www.w3.org/TR/2001/REC-SVG-20010904/DTD/svg10.dtd">
<svg version="1.0" xmlns="http://www.w3.org/2000/svg"
 width="1200.000000pt" height="1200.000000pt" viewBox="0 0 1200.000000 1200.000000"
 preserveAspectRatio="xMidYMid meet">
<metadata>
Created by potrace 1.11, written by Peter Selinger 2001-2013
</metadata>
<g transform="translate(0.000000,1200.000000) scale(0.100000,-0.100000)"
fill="#000000" stroke="none">
<path d="M5310 9383 c0 -2 20 -23 45 -49 26 -26 50 -42 57 -38 6 4 8 3 4 -4
-3 -6 28 -45 70 -86 66 -66 79 -75 93 -64 14 12 15 11 2 -5 -13 -16 -13 -20 0
-28 8 -5 17 -9 22 -9 4 0 6 -3 5 -7 -1 -5 33 -43 76 -86 68 -67 80 -76 95 -65
14 11 14 11 3 -3 -11 -14 -5 -24 40 -70 29 -29 56 -52 61 -51 4 1 7 -4 7 -12
0 -8 9 -17 20 -21 11 -3 19 -9 17 -13 -1 -4 15 -23 36 -43 l38 -36 144 144
c103 103 143 149 139 161 -4 13 -3 14 3 4 8 -10 39 16 127 104 108 108 115
117 99 131 -16 13 -16 13 6 3 18 -10 25 -9 32 1 4 7 5 17 3 21 -3 4 3 5 12 1
14 -5 16 -3 11 11 -4 9 -3 15 2 12 5 -3 19 3 31 14 20 17 21 22 9 37 -13 16
-12 17 4 4 15 -12 20 -10 42 13 14 15 25 28 25 30 0 6 -49 0 -56 -7 -4 -3 -14
-2 -24 3 -12 6 -24 4 -41 -7 -20 -14 -22 -14 -12 -2 11 14 4 16 -62 14 -46 -1
-81 -7 -92 -16 -16 -13 -17 -12 -5 2 11 15 10 17 -12 15 -13 0 -21 -5 -18 -11
3 -5 -1 -5 -9 1 -15 12 -89 11 -109 -1 -8 -5 -11 -4 -7 2 3 5 0 10 -8 10 -8 0
-12 -5 -8 -10 3 -5 -3 -4 -14 2 -14 7 -23 7 -31 -1 -7 -7 -12 -8 -12 -2 0 5
-27 10 -59 10 -33 0 -57 -4 -54 -9 3 -5 -3 -5 -13 1 -22 10 -95 9 -114 -3 -8
-5 -11 -4 -7 2 3 5 0 10 -8 10 -8 0 -12 -5 -8 -10 3 -5 -3 -4 -14 2 -14 7 -23
7 -31 -1 -7 -7 -12 -8 -12 -2 0 12 -220 12 -240 -1 -8 -5 -11 -4 -7 2 3 5 0
10 -8 10 -8 0 -12 -5 -8 -10 3 -5 -3 -4 -14 2 -14 7 -23 7 -31 -1 -7 -7 -12
-8 -12 -2 0 6 -24 10 -54 10 -30 -1 -52 -5 -49 -9 3 -5 -3 -4 -14 2 -14 7 -23
7 -31 -1 -7 -7 -12 -8 -12 -2 0 5 -13 10 -30 9 -16 0 -30 -1 -30 -2z m254 -49
c3 -8 2 -12 -4 -9 -6 3 -10 10 -10 16 0 14 7 11 14 -7z m320 0 c3 -8 2 -12 -4
-9 -6 3 -10 10 -10 16 0 14 7 11 14 -7z m320 0 c3 -8 2 -12 -4 -9 -6 3 -10 10
-10 16 0 14 7 11 14 -7z m-596 -19 c-3 -3 -9 2 -12 12 -6 14 -5 15 5 6 7 -7
10 -15 7 -18z m320 0 c-3 -3 -9 2 -12 12 -6 14 -5 15 5 6 7 -7 10 -15 7 -18z
m320 0 c-3 -3 -9 2 -12 12 -6 14 -5 15 5 6 7 -7 10 -15 7 -18z m315 10 c-3 -9
-8 -14 -10 -11 -3 3 -2 9 2 15 9 16 15 13 8 -4z m-153 -7 c0 -4 -4 -8 -9 -8
-6 0 -12 4 -15 8 -3 5 1 9 9 9 8 0 15 -4 15 -9z m-929 -45 c13 -17 13 -17 -6
-3 -11 8 -22 16 -24 17 -2 2 0 3 6 3 6 0 17 -8 24 -17z m59 11 c0 -8 -19 -13
-24 -6 -3 5 1 9 9 9 8 0 15 -2 15 -3z m261 -11 c13 -17 13 -17 -6 -3 -11 8
-22 16 -24 17 -2 2 0 3 6 3 6 0 17 -8 24 -17z m59 11 c0 -8 -19 -13 -24 -6 -3
5 1 9 9 9 8 0 15 -2 15 -3z m261 -11 c13 -17 13 -17 -6 -3 -11 8 -22 16 -24
17 -2 2 0 3 6 3 6 0 17 -8 24 -17z m59 11 c0 -8 -19 -13 -24 -6 -3 5 1 9 9 9
8 0 15 -2 15 -3z m223 -19 c-3 -9 -8 -14 -10 -11 -3 3 -2 9 2 15 9 16 15 13 8
-4z m-658 -33 c-3 -3 -11 0 -18 7 -9 10 -8 11 6 5 10 -3 15 -9 12 -12z m290 8
c-3 -5 -12 -10 -18 -10 -7 0 -6 4 3 10 19 12 23 12 15 0z m430 -8 c-3 -3 -11
0 -18 7 -9 10 -8 11 6 5 10 -3 15 -9 12 -12z m-895 -12 c0 -5 -2 -10 -4 -10
-3 0 -8 5 -11 10 -3 6 -1 10 4 10 6 0 11 -4 11 -10z m320 0 c0 -5 -2 -10 -4
-10 -3 0 -8 5 -11 10 -3 6 -1 10 4 10 6 0 11 -4 11 -10z m320 0 c0 -5 -2 -10
-4 -10 -3 0 -8 5 -11 10 -3 6 -1 10 4 10 6 0 11 -4 11 -10z m-246 -46 c3 -8 2
-12 -4 -9 -6 3 -10 10 -10 16 0 14 7 11 14 -7z m321 7 c3 -5 2 -12 -3 -15 -5
-3 -9 1 -9 9 0 17 3 19 12 6z m-517 -46 c-3 -3 -9 2 -12 12 -6 14 -5 15 5 6 7
-7 10 -15 7 -18z m282 -9 c0 -2 -7 -7 -16 -10 -8 -3 -12 -2 -9 4 6 10 25 14
25 6z m100 -6 c0 -5 -5 -10 -11 -10 -5 0 -7 5 -4 10 3 6 8 10 11 10 2 0 4 -4
4 -10z m-425 -20 c3 -5 1 -10 -4 -10 -6 0 -11 5 -11 10 0 6 2 10 4 10 3 0 8
-4 11 -10z m43 -25 c-3 -3 -9 2 -12 12 -6 14 -5 15 5 6 7 -7 10 -15 7 -18z
m115 -10 c-3 -9 -8 -14 -10 -11 -3 3 -2 9 2 15 9 16 15 13 8 -4z m165 -10 c-3
-3 -9 2 -12 12 -6 14 -5 15 5 6 7 -7 10 -15 7 -18z m239 10 c0 -8 -4 -12 -9
-9 -5 3 -6 10 -3 15 9 13 12 11 12 -6z m-37 -45 c0 -5 -5 -10 -11 -10 -5 0 -7
5 -4 10 3 6 8 10 11 10 2 0 4 -4 4 -10z m-425 -28 c-3 -3 -11 0 -18 7 -9 10
-8 11 6 5 10 -3 15 -9 12 -12z m165 14 c0 -2 -7 -7 -16 -10 -8 -3 -12 -2 -9 4
6 10 25 14 25 6z m-10 -40 c0 -2 -8 -10 -17 -17 -16 -13 -17 -12 -4 4 13 16
21 21 21 13z m55 -6 c-3 -5 -12 -10 -18 -10 -7 0 -6 4 3 10 19 12 23 12 15 0z
m55 6 c0 -2 -7 -7 -16 -10 -8 -3 -12 -2 -9 4 6 10 25 14 25 6z m-220 -46 c0
-5 -2 -10 -4 -10 -3 0 -8 5 -11 10 -3 6 -1 10 4 10 6 0 11 -4 11 -10z m120
-74 c0 -3 -4 -8 -10 -11 -5 -3 -10 -1 -10 4 0 6 5 11 10 11 6 0 10 -2 10 -4z"/>
<path d="M3575 7368 l0 -2013 255 -3 254 -2 121 120 121 121 0 1524 -1 1525
-370 370 c-203 203 -372 370 -375 370 -3 0 -5 -906 -5 -2012z"/>
<path d="M8044 9007 l-371 -372 1 -1640 1 -1640 375 0 375 0 1 1995 c0 1097
-2 2003 -6 2012 -4 14 -92 -69 -376 -355z"/>
<path d="M4600 8325 c9 -11 9 -15 1 -15 -8 0 -9 -5 -2 -19 6 -10 7 -21 4 -25
-9 -9 -10 -206 -1 -206 4 0 4 -10 0 -22 -6 -19 -8 -97 -3 -146 0 -7 7 -10 14
-7 6 4 5 1 -3 -7 -11 -9 -15 -32 -14 -83 1 -38 3 -74 4 -80 1 -5 1 -12 0 -15
-6 -17 -5 -50 2 -50 5 0 5 -8 -1 -17 -5 -10 -5 -26 -1 -39 5 -12 6 -25 2 -28
-9 -10 -8 -156 1 -156 4 0 3 -8 -2 -18 -5 -10 -6 -24 -1 -32 4 -7 6 -20 2 -28
-7 -20 -7 -80 1 -88 3 -3 2 -17 -3 -30 -6 -14 -6 -26 1 -29 5 -4 6 -11 2 -18
-9 -14 -10 -97 -1 -97 4 0 5 -6 2 -14 -9 -23 -10 -126 -1 -126 4 0 3 -8 -2
-18 -6 -10 -6 -24 -1 -32 5 -8 6 -18 3 -23 -8 -13 -8 -141 0 -154 4 -6 4 -13
0 -17 -9 -9 -10 -96 -1 -96 4 0 5 -7 1 -16 -3 -9 -7 -121 -7 -248 -1 -194 1
-233 14 -244 8 -8 9 -11 3 -7 -7 3 -13 3 -14 -2 0 -4 -2 -18 -3 -30 -2 -13 0
-23 3 -23 3 0 44 38 90 85 46 47 88 85 93 85 5 0 7 3 5 8 -3 4 13 21 34 37 21
17 38 33 39 36 0 3 49 55 110 114 60 60 106 113 103 118 -3 6 -2 7 4 4 13 -8
96 77 86 88 -5 4 -3 5 3 2 14 -8 147 126 137 138 -4 4 -3 5 3 2 31 -18 61 105
30 125 -8 5 -7 8 2 8 15 0 13 60 -3 60 -6 0 -6 3 1 8 14 9 14 152 0 152 -8 0
-8 3 0 8 14 9 14 164 0 174 -8 5 -7 8 0 8 14 0 15 48 2 56 -5 4 -5 10 0 17 6
7 9 66 8 132 l-1 120 -257 256 c-141 141 -259 254 -262 251 -3 -3 -6 0 -6 7 0
15 -168 181 -183 181 -6 0 -8 3 -4 6 8 8 -18 34 -34 34 -9 0 -8 -4 1 -15z m81
-332 c13 -16 12 -17 -3 -4 -10 7 -18 15 -18 17 0 8 8 3 21 -13z m215 -35 c3
-4 -1 -5 -10 -4 -8 1 -18 5 -22 8 -3 4 1 5 10 4 8 -1 18 -5 22 -8z m-210 -524
c1 -9 0 -13 -4 -10 -3 4 -7 14 -8 22 -1 9 0 13 4 10 3 -4 7 -14 8 -22z m50
-436 c3 -4 -1 -5 -10 -4 -8 1 -18 5 -22 8 -3 4 1 5 10 4 8 -1 18 -5 22 -8z
m159 3 c-9 -8 -36 -10 -30 -2 2 4 11 8 20 8 8 0 13 -3 10 -6z m161 -243 c3 -4
-1 -5 -10 -4 -8 1 -18 5 -22 8 -3 4 1 5 10 4 8 -1 18 -5 22 -8z m-290 -113
c-1 -8 -5 -17 -8 -21 -5 -4 -4 16 1 34 3 9 9 -1 7 -13z m45 -282 c13 -16 12
-17 -3 -4 -10 7 -18 15 -18 17 0 8 8 3 21 -13z"/>
<path d="M7386 8184 c-9 -8 -13 -20 -10 -26 4 -6 3 -8 -3 -5 -14 9 -115 -91
-107 -105 4 -6 3 -8 -4 -4 -11 7 -233 -209 -224 -218 3 -4 -2 -6 -11 -6 -10 0
-17 -7 -17 -17 0 -9 -3 -14 -6 -11 -3 3 -82 -70 -176 -163 -148 -146 -172
-173 -173 -201 -1 -18 3 -36 9 -40 8 -5 7 -8 -1 -8 -16 0 -15 -80 1 -80 8 0 8
-3 0 -8 -13 -8 -13 -50 0 -71 6 -9 5 -12 -2 -7 -14 8 -12 -136 3 -146 6 -5 6
-8 -2 -8 -16 0 -15 -80 1 -80 8 0 8 -3 1 -8 -15 -10 -15 -215 -1 -224 7 -5 7
-8 -1 -8 -16 0 -15 -80 1 -80 8 0 8 -3 0 -8 -13 -8 -13 -50 0 -71 6 -9 5 -12
-2 -7 -14 8 -12 -136 3 -146 6 -5 6 -8 -2 -8 -16 0 -15 -80 1 -80 8 0 8 -2 0
-8 -14 -10 -14 -215 0 -224 8 -5 7 -8 -1 -8 -16 0 -15 -80 1 -80 8 0 8 -3 0
-8 -13 -8 -13 -50 0 -71 6 -9 5 -12 -2 -7 -14 8 -12 -136 3 -146 6 -5 6 -8 -2
-8 -16 0 -15 -80 1 -80 8 0 8 -3 0 -8 -13 -9 -13 -135 1 -144 6 -5 6 -8 -2 -8
-16 0 -15 -80 1 -80 8 0 8 -3 0 -8 -6 -4 -11 -27 -10 -52 1 -35 5 -46 20 -48
12 -3 16 0 11 8 -5 8 -1 8 13 -1 17 -11 24 -10 38 2 10 8 15 9 12 4 -5 -7 26
-11 93 -12 66 0 97 3 92 10 -4 6 -1 7 8 1 21 -14 261 -14 278 0 9 7 12 7 8 0
-4 -7 23 -10 84 -11 74 0 89 3 90 16 3 64 0 161 -5 169 -3 6 -3 13 2 16 5 3 7
20 5 38 -4 38 -4 80 0 158 2 30 -1 63 -5 73 -5 10 -5 17 1 17 5 0 6 12 2 28
-4 15 -5 41 -1 57 9 43 4 93 -12 112 -9 12 -9 15 0 9 20 -12 23 69 4 103 -8
13 -10 21 -4 17 14 -9 22 30 12 64 -4 16 -6 31 -3 34 3 3 5 76 4 163 -1 216
-1 221 2 283 2 30 -1 63 -5 73 -5 10 -5 17 1 17 6 0 6 11 1 29 -4 15 -4 34 0
42 5 7 6 17 3 22 -5 9 -5 29 0 137 2 30 -1 63 -5 73 -5 10 -5 17 1 17 5 0 6
12 2 28 -4 15 -5 41 -1 57 9 43 4 93 -12 112 -9 12 -9 15 0 9 20 -12 23 69 4
103 -8 13 -10 21 -4 17 14 -9 22 30 12 64 -4 16 -6 31 -3 34 8 8 7 272 -1 285
-4 6 -2 11 4 11 6 0 8 5 4 11 -6 11 -6 29 -1 139 2 30 -1 63 -5 73 -5 10 -5
17 1 17 5 0 6 12 2 28 -4 15 -4 42 0 60 8 37 7 38 -15 16z m-256 -548 c-7 -7
-13 -7 -20 0 -6 6 -3 10 10 10 13 0 16 -4 10 -10z m200 -100 c0 -2 -8 -10 -17
-17 -16 -13 -17 -12 -4 4 13 16 21 21 21 13z m-84 -422 c1 -9 0 -13 -4 -10 -3
4 -7 14 -8 22 -1 9 0 13 4 10 3 -4 7 -14 8 -22z m-240 -149 c-1 -8 -5 -17 -8
-21 -5 -4 -4 16 1 34 3 9 9 -1 7 -13z m0 -171 c1 -9 0 -13 -4 -10 -3 4 -7 14
-8 22 -1 9 0 13 4 10 3 -4 7 -14 8 -22z m240 -149 c-1 -8 -5 -17 -8 -21 -5 -4
-4 16 1 34 3 9 9 -1 7 -13z m-431 -204 c-9 -8 -36 -10 -30 -2 2 4 11 8 20 8 8
0 13 -3 10 -6z m191 -287 c1 -9 0 -13 -4 -10 -3 4 -7 14 -8 22 -1 9 0 13 4 10
3 -4 7 -14 8 -22z m-75 -231 c13 -16 12 -17 -3 -4 -10 7 -18 15 -18 17 0 8 8
3 21 -13z m315 -89 c1 -9 0 -13 -4 -10 -3 4 -7 14 -8 22 -1 9 0 13 4 10 3 -4
7 -14 8 -22z m-240 -149 c-1 -8 -5 -17 -8 -21 -5 -4 -4 16 1 34 3 9 9 -1 7
-13z m275 -92 c13 -16 12 -17 -3 -4 -10 7 -18 15 -18 17 0 8 8 3 21 -13z"/>
<path d="M5624 7458 c3 -10 1 -20 -5 -23 -5 -4 -6 -11 -3 -17 9 -14 8 -173 -1
-188 -3 -5 1 -13 9 -16 9 -3 16 -13 16 -21 0 -8 4 -12 9 -9 9 6 41 -35 41 -51
0 -4 -9 6 -20 22 -11 17 -20 26 -20 20 0 -5 -7 -1 -15 9 -14 19 -15 19 -15 -7
0 -17 5 -27 15 -27 8 0 15 -4 15 -9 0 -5 -10 -7 -22 -4 -17 3 -19 2 -10 -5 8
-5 13 -13 11 -18 -13 -47 -16 -73 -7 -68 6 4 7 -2 3 -17 -5 -15 36 19 111 94
111 111 116 118 98 132 -10 8 -25 15 -32 15 -7 0 -11 4 -8 9 3 4 -30 43 -74
85 -44 42 -84 84 -90 94 -11 16 -11 16 -6 0z m36 -52 c0 -2 -7 -6 -15 -10 -8
-3 -15 -1 -15 4 0 6 7 10 15 10 8 0 15 -2 15 -4z m24 -39 c4 4 4 -1 0 -10 -4
-12 -2 -17 7 -15 8 2 14 -5 14 -17 0 -11 9 -23 20 -27 17 -6 16 -7 -5 -5 -20
2 -24 7 -22 26 2 14 0 21 -7 17 -5 -4 -17 8 -26 26 -11 23 -12 28 -2 16 8 -10
17 -15 21 -11z m44 -32 c-3 -3 -9 2 -12 12 -6 14 -5 15 5 6 7 -7 10 -15 7 -18z
m-81 -12 c-4 -3 1 -12 11 -20 15 -13 15 -13 -6 -3 -19 9 -23 30 -5 30 4 0 3
-3 0 -7z m103 -3 c0 -5 -5 -10 -11 -10 -5 0 -7 5 -4 10 3 6 8 10 11 10 2 0 4
-4 4 -10z m12 -42 c-7 -7 -12 -8 -12 -2 0 14 12 26 19 19 2 -3 -1 -11 -7 -17z
m-75 -3 c0 -8 -4 -15 -9 -15 -10 0 -11 14 -1 23 9 10 10 9 10 -8z m55 -34 c-3
-16 0 -21 9 -16 8 5 10 4 5 -4 -11 -17 -29 -2 -23 20 3 12 -2 19 -17 23 -17 3
-16 4 4 3 20 -2 24 -7 22 -26z m45 -2 c-3 -10 1 -20 9 -22 9 -3 8 -4 -2 -3
-11 0 -18 10 -18 28 -1 14 2 24 7 21 5 -3 7 -14 4 -24z m30 -1 c-3 -8 -6 -5
-6 6 -1 11 2 17 5 13 3 -3 4 -12 1 -19z m-147 8 c0 -2 -7 -7 -16 -10 -8 -3
-12 -2 -9 4 6 10 25 14 25 6z m38 -13 c-2 -10 -10 -17 -17 -15 -10 2 -12 -5
-8 -25 l6 -28 -13 28 c-6 15 -16 24 -21 20 -4 -5 -5 -3 -1 4 3 6 16 10 27 8
15 -3 19 0 15 10 -3 8 -1 15 5 15 6 0 9 -8 7 -17z m17 -33 c-3 -5 -11 -10 -16
-10 -6 0 -7 5 -4 10 3 6 11 10 16 10 6 0 7 -4 4 -10z m65 -7 c0 -3 -7 -2 -16
1 -12 5 -15 2 -10 -11 6 -14 4 -15 -5 -6 -14 14 -3 34 16 26 8 -3 15 -7 15
-10z m-60 -31 c0 -5 -7 -9 -15 -9 -8 0 -15 4 -15 9 0 4 7 8 15 8 8 0 15 -4 15
-8z m-16 -47 c-4 -8 -8 -15 -10 -15 -2 0 -4 7 -4 15 0 8 4 15 10 15 5 0 7 -7
4 -15z m-24 -18 c0 -5 -7 -6 -16 -3 -12 5 -15 2 -10 -9 3 -9 2 -13 -4 -10 -6
3 -10 1 -10 -4 0 -6 -4 -11 -8 -11 -5 0 -9 7 -9 15 0 8 4 12 8 10 4 -3 9 1 12
8 6 15 37 19 37 4z"/>
<path d="M6341 7303 c-24 -20 -49 -50 -57 -67 -8 -17 -12 -23 -9 -13 7 26 0
21 -52 -35 -26 -29 -66 -68 -87 -88 -70 -63 -105 -103 -99 -113 3 -6 1 -7 -4
-4 -11 7 -110 -83 -106 -95 2 -4 -6 -10 -17 -13 -18 -6 -25 -17 -21 -38 1 -5
-3 -6 -8 -3 -5 4 -14 -2 -20 -11 -6 -10 -11 -14 -11 -9 0 5 -11 -3 -25 -18
-27 -29 -32 -42 -13 -30 7 4 8 3 4 -5 -4 -6 -11 -9 -16 -6 -14 9 -40 -24 -33
-43 6 -15 5 -16 -12 -2 -17 14 -18 13 -12 -3 4 -10 3 -16 -2 -13 -11 7 -53
-33 -46 -44 3 -5 0 -12 -6 -16 -8 -4 -9 -3 -5 4 14 23 -10 11 -29 -14 -26 -35
-29 -111 -4 -117 12 -3 17 -12 14 -26 -3 -16 1 -20 18 -18 16 1 21 -3 22 -22
0 -19 -5 -24 -27 -25 -14 -1 -24 2 -21 7 3 5 13 7 23 4 13 -3 18 0 17 14 -1
12 -8 17 -22 16 -15 -2 -20 4 -19 21 1 12 -4 22 -10 22 -7 0 -11 -25 -12 -70
0 -56 3 -70 15 -70 12 0 11 -3 -3 -13 -18 -13 -19 -49 -2 -76 6 -9 5 -12 -1
-8 -6 4 -10 -4 -10 -18 0 -14 3 -25 8 -25 5 0 9 -7 9 -15 0 -8 -4 -15 -8 -15
-5 0 -9 -18 -9 -39 0 -31 3 -38 16 -34 14 4 14 3 1 -6 -22 -16 -22 -78 1 -84
12 -3 17 -12 14 -26 -3 -16 1 -20 18 -18 16 1 21 -3 22 -22 0 -19 -5 -24 -27
-25 -14 -1 -24 2 -21 7 3 5 13 7 23 4 13 -3 18 0 17 14 -1 12 -8 17 -22 16
-15 -2 -20 4 -19 21 1 12 -4 22 -10 22 -7 0 -11 -25 -12 -70 0 -56 3 -70 15
-70 12 0 11 -3 -3 -13 -18 -13 -19 -49 -2 -76 7 -10 6 -12 -4 -6 -8 5 -11 3
-8 -6 3 -8 14 -13 24 -11 15 2 16 1 4 -7 -8 -5 -17 -8 -21 -5 -14 8 -4 -62 11
-74 13 -12 13 -13 -1 -9 -12 4 -16 -1 -16 -18 0 -17 4 -22 16 -18 13 4 13 3
-1 -7 -16 -10 -22 -60 -7 -60 3 0 6 -7 6 -15 0 -8 -4 -15 -9 -15 -4 0 -8 -9
-8 -20 0 -11 5 -20 10 -20 6 0 10 -5 10 -11 0 -5 -4 -8 -8 -5 -4 2 -8 -15 -8
-39 -1 -24 2 -42 6 -40 4 2 7 -2 7 -10 0 -8 -4 -12 -8 -9 -4 2 -7 -4 -6 -14 0
-10 7 -19 14 -19 6 0 10 4 7 9 -3 4 0 8 5 8 6 0 11 -4 11 -10 0 -5 5 -10 10
-10 7 0 7 7 -1 21 -13 25 0 43 21 28 13 -9 12 -10 -2 -5 -22 7 -23 -4 -3 -30
14 -19 14 -19 15 1 1 15 3 17 8 5 5 -10 22 -15 54 -15 26 -1 44 3 42 7 -3 4 0
8 5 8 6 0 11 -3 11 -8 0 -10 156 -9 166 1 10 10 26 9 20 -1 -2 -4 16 -8 42 -8
32 0 49 5 54 16 6 13 7 13 7 -1 1 -16 31 -23 31 -7 0 4 5 8 11 8 5 0 8 -3 5
-8 -2 -4 22 -7 55 -7 32 0 59 4 59 10 0 5 5 3 11 -5 9 -12 10 -11 6 8 -3 12
-1 20 4 16 5 -3 9 -13 9 -22 0 -15 2 -15 10 -2 5 8 10 10 10 5 0 -6 11 -11 23
-11 22 0 24 4 24 58 0 32 -4 61 -8 64 -5 3 -9 11 -9 17 0 7 4 6 10 -3 8 -12
10 -9 10 12 0 20 -6 28 -22 31 -23 4 -23 4 1 6 20 1 22 3 11 17 -8 8 -9 14 -4
13 20 -3 24 2 12 15 -7 8 -17 11 -22 8 -5 -3 -6 0 -2 7 4 6 11 9 16 6 13 -8 9
59 -4 67 -8 5 -7 8 2 8 6 0 12 5 12 11 0 5 -4 8 -8 5 -4 -2 -14 0 -22 5 -12 8
-11 9 5 7 18 -3 20 3 21 57 1 36 -3 63 -10 67 -8 6 -8 8 2 8 7 0 12 12 12 28
0 23 -4 28 -22 28 -18 -1 -23 4 -22 22 1 16 -3 22 -12 18 -8 -3 -14 -1 -14 5
0 6 8 9 18 7 11 -2 17 -12 16 -26 -1 -16 3 -22 15 -20 19 4 26 79 8 90 -9 6
-9 8 1 8 6 0 12 5 12 11 0 5 -4 8 -8 5 -4 -2 -14 0 -22 5 -12 8 -11 9 5 7 18
-3 20 3 21 57 1 36 -3 63 -10 67 -8 6 -8 8 1 8 16 0 15 142 -1 152 -8 5 -7 8
2 8 6 0 12 5 12 11 0 5 -4 8 -8 5 -4 -2 -14 0 -22 5 -12 8 -11 9 5 7 18 -3 20
3 21 57 1 36 -3 63 -10 67 -8 6 -8 8 2 8 7 0 12 12 12 28 0 23 -4 28 -22 28
-18 -1 -23 4 -22 22 1 16 -3 22 -12 18 -8 -3 -14 -1 -14 5 0 6 8 9 18 7 11 -2
17 -12 16 -26 -1 -16 3 -22 15 -20 22 4 28 48 7 48 -9 0 -16 4 -16 10 0 5 7 7
15 4 9 -4 15 0 15 9 0 8 -6 18 -12 20 -10 4 -10 6 0 6 6 1 12 6 12 12 0 5 -4
8 -8 5 -4 -2 -14 0 -22 5 -12 8 -11 9 5 7 18 -3 20 3 21 57 1 36 -3 63 -10 67
-8 6 -8 8 1 8 16 0 15 142 -1 152 -7 5 -7 8 2 8 17 0 16 221 -2 232 -8 6 -8 8
2 8 6 0 12 5 12 11 0 5 -4 8 -8 5 -4 -2 -14 0 -22 5 -12 8 -11 9 5 7 17 -3 20
3 21 43 0 25 4 51 8 57 12 20 0 13 -43 -25z m22 -28 c-3 -9 -8 -14 -10 -11 -3
3 -2 9 2 15 9 16 15 13 8 -4z m-42 -22 c-12 -20 -14 -14 -5 12 4 9 9 14 11 11
3 -2 0 -13 -6 -23z m3 -35 c-4 -5 -9 -7 -12 -4 -3 4 -14 -6 -24 -21 -10 -16
-18 -24 -18 -20 0 16 31 54 45 54 8 0 12 -4 9 -9z m-64 -18 c0 -5 -5 -10 -11
-10 -5 0 -7 5 -4 10 3 6 8 10 11 10 2 0 4 -4 4 -10z m90 6 c0 -2 -7 -7 -16
-10 -8 -3 -12 -2 -9 4 6 10 25 14 25 6z m-7 -29 c-3 -5 -13 -7 -23 -4 -13 3
-18 0 -17 -14 1 -11 8 -17 20 -16 12 1 21 -5 22 -15 2 -10 -1 -18 -7 -18 -6 0
-8 7 -4 15 4 10 -1 14 -16 12 -14 -1 -22 4 -24 17 -4 27 0 31 29 31 14 0 23
-4 20 -8z m-93 -7 c8 -5 11 -10 5 -10 -5 0 -17 5 -25 10 -8 5 -10 10 -5 10 6
0 17 -5 25 -10z m120 -4 c0 -3 -4 -8 -10 -11 -5 -3 -10 -1 -10 4 0 6 5 11 10
11 6 0 10 -2 10 -4z m-70 -46 c8 -5 11 -10 5 -10 -5 0 -21 10 -35 21 -24 20
-5 13 30 -11z m-90 5 c0 -8 -4 -15 -10 -15 -5 0 -7 7 -4 15 4 8 8 15 10 15 2
0 4 -7 4 -15z m56 -12 c-6 -6 -36 9 -36 18 0 5 9 4 20 -3 10 -7 18 -14 16 -15z
m-79 -34 c-4 -14 0 -19 13 -19 13 0 18 6 15 20 -2 11 1 23 7 26 7 5 8 2 3 -6
-6 -10 -4 -12 8 -7 10 3 17 2 17 -3 0 -6 -7 -10 -15 -10 -8 0 -14 -6 -12 -12
1 -8 -8 -13 -23 -13 -20 0 -24 4 -22 23 3 21 1 22 -17 11 -11 -7 -18 -16 -15
-20 8 -13 -17 -22 -29 -10 -9 9 -8 11 6 5 11 -4 17 -2 15 4 -4 13 34 42 45 35
5 -3 7 -14 4 -24z m183 21 c0 -5 -5 -10 -11 -10 -5 0 -7 5 -4 10 3 6 8 10 11
10 2 0 4 -4 4 -10z m-80 -15 c0 -8 -4 -15 -10 -15 -5 0 -7 7 -4 15 4 8 8 15
10 15 2 0 4 -7 4 -15z m42 8 c-6 -2 -9 -10 -6 -15 4 -7 2 -8 -4 -4 -18 11 -14
26 6 25 10 0 12 -3 4 -6z m-63 -56 c-1 -20 -2 -20 -8 3 -4 15 -10 20 -14 13
-4 -6 -4 -19 -1 -30 5 -17 5 -17 -6 0 -9 14 -9 22 0 32 16 19 30 10 29 -18z
m47 21 c4 -7 3 -8 -4 -4 -7 4 -12 3 -12 -3 0 -5 6 -12 13 -14 9 -4 9 -6 0 -6
-15 -1 -26 16 -18 29 8 13 12 13 21 -2z m54 2 c0 -5 -6 -7 -13 -4 -8 3 -13 -3
-13 -16 0 -13 5 -19 13 -16 7 3 13 1 13 -5 0 -6 -8 -9 -17 -7 -15 3 -20 24
-14 53 2 9 31 5 31 -5z m-255 -20 c3 -6 -1 -7 -9 -4 -18 7 -21 14 -7 14 6 0
13 -4 16 -10z m45 0 c-8 -5 -19 -10 -25 -10 -5 0 -3 5 5 10 8 5 20 10 25 10 6
0 3 -5 -5 -10z m65 -30 c-3 -4 0 -11 5 -13 7 -4 6 -5 0 -4 -7 2 -10 6 -8 9 2
4 -6 14 -17 23 -19 16 -19 16 3 5 12 -6 20 -15 17 -20z m-118 5 c4 -4 2 -5 -4
-1 -7 4 -13 2 -13 -4 0 -6 -4 -8 -10 -5 -5 3 -10 10 -10 15 0 10 27 7 37 -5z
m79 -13 c4 -24 -11 -38 -22 -21 -4 7 -3 9 4 5 7 -4 10 1 9 14 -1 21 -17 29
-17 8 0 -6 -3 -9 -6 -5 -9 9 6 29 19 24 5 -1 12 -13 13 -25z m102 2 c0 -17 -3
-22 -8 -13 -5 6 -6 18 -3 26 8 19 11 16 11 -13z m-158 1 c0 -8 -4 -15 -10 -15
-5 0 -7 7 -4 15 4 8 8 15 10 15 2 0 4 -7 4 -15z m-66 -17 c-4 -6 3 -8 17 -6
20 2 24 -1 24 -22 -1 -19 -6 -25 -21 -23 -13 1 -20 -4 -21 -17 -1 -11 4 -19
10 -17 7 1 12 -4 12 -12 0 -8 -6 -15 -13 -17 -7 -1 -8 0 -2 3 14 7 12 23 -2
21 -8 -2 -13 7 -13 22 1 19 6 25 21 23 13 -1 20 4 21 16 1 12 -5 17 -19 17
-12 -1 -22 6 -24 17 -1 9 2 15 7 11 5 -3 7 -10 3 -16z m266 11 c0 -15 -18 -19
-23 -6 -3 8 1 14 9 14 8 0 14 -4 14 -8z m-75 -26 c-11 -7 -24 -13 -29 -13 -6
1 -1 6 12 13 12 7 19 17 15 22 -4 4 -2 5 6 0 12 -7 11 -10 -4 -22z m-108 10
c-4 -3 -1 -11 6 -17 7 -6 10 -10 8 -9 -2 2 -9 -4 -15 -13 -10 -13 -11 -10 -10
13 3 34 2 33 11 33 3 0 3 -3 0 -7z m60 -18 c-1 -14 -7 -25 -12 -25 -6 1 -13
-9 -17 -22 -7 -22 -7 -22 -5 2 1 14 8 24 15 22 7 -1 12 3 11 10 -2 19 0 38 5
38 3 0 4 -11 3 -25z m163 15 c0 -5 -6 -7 -14 -4 -9 4 -13 -2 -12 -18 1 -18 -4
-23 -22 -21 -13 2 -21 -1 -18 -5 2 -4 0 -14 -5 -22 -7 -11 -8 -8 -5 10 2 18 9
24 24 23 14 -2 19 3 17 15 -1 9 0 20 2 25 6 10 33 9 33 -3z m-341 -13 c-2 -1
-13 -9 -24 -17 -19 -14 -19 -14 -6 3 7 9 18 17 24 17 6 0 8 -1 6 -3z m8 -22
c-10 -7 -18 -17 -17 -21 1 -5 -4 -10 -12 -12 -11 -3 -11 -2 0 6 8 5 13 12 13
16 -2 10 23 35 29 29 3 -2 -3 -11 -13 -18z m270 19 c-2 -3 -17 -7 -33 -10 -17
-2 -24 -1 -17 4 13 8 58 14 50 6z m-317 -44 c0 -5 -4 -10 -10 -10 -5 0 -10 5
-10 10 0 6 5 10 10 10 6 0 10 -4 10 -10z m150 -6 c0 -2 -7 -4 -15 -4 -8 0 -15
4 -15 10 0 5 7 7 15 4 8 -4 15 -8 15 -10z m120 0 c0 -2 -7 -4 -15 -4 -8 0 -15
4 -15 10 0 5 7 7 15 4 8 -4 15 -8 15 -10z m110 12 c0 -3 -4 -8 -10 -11 -5 -3
-10 -1 -10 4 0 6 5 11 10 11 6 0 10 -2 10 -4z m-324 -52 c3 -16 2 -26 -1 -23
-3 4 -8 19 -11 35 -3 16 -2 26 1 23 3 -4 8 -19 11 -35z m120 0 c3 -16 2 -26
-1 -23 -3 4 -8 19 -11 35 -3 16 -2 26 1 23 3 -4 8 -19 11 -35z m59 27 c3 -5 0
-13 -6 -17 -8 -5 -9 -3 -4 6 6 10 4 12 -8 7 -10 -3 -17 -2 -17 3 0 13 27 13
35 1z m120 0 c3 -5 0 -13 -6 -17 -8 -5 -9 -3 -4 6 6 10 4 12 -8 7 -10 -3 -17
-2 -17 3 0 13 27 13 35 1z m-380 -20 c-3 -6 -11 -11 -16 -11 -5 0 -4 6 3 14
14 16 24 13 13 -3z m175 5 c0 -2 -7 -7 -16 -10 -8 -3 -12 -2 -9 4 6 10 25 14
25 6z m113 -3 c-16 -6 -17 -24 -1 -20 6 1 14 -6 16 -15 2 -10 -1 -18 -7 -18
-6 0 -7 7 -4 17 4 10 2 14 -5 9 -13 -8 -26 10 -17 24 3 6 12 10 18 9 9 0 9 -2
0 -6z m77 -19 c0 -2 -9 0 -20 6 -11 6 -20 13 -20 16 0 2 9 0 20 -6 11 -6 20
-13 20 -16z m36 6 c0 -12 -4 -16 -9 -11 -5 5 -6 14 -3 20 10 15 12 14 12 -9z
m-382 -1 c-4 -7 2 -9 17 -7 20 2 24 -1 24 -22 -1 -20 -5 -25 -22 -23 -16 2
-21 -2 -17 -12 4 -8 2 -15 -4 -15 -6 0 -9 8 -7 18 1 10 10 16 22 15 12 -1 19
5 20 18 1 11 -3 17 -8 13 -14 -8 -41 4 -34 16 3 5 8 10 11 10 3 0 2 -5 -2 -11z
m304 -14 c-3 -3 -9 2 -12 12 -6 14 -5 15 5 6 7 -7 10 -15 7 -18z m-143 -16 c0
-15 -5 -23 -14 -21 -8 2 -11 -3 -8 -11 3 -8 1 -20 -4 -28 -8 -12 -10 -12 -8 1
3 30 -1 41 -13 34 -6 -4 -8 -3 -4 4 3 6 15 9 26 7 14 -3 20 2 20 15 0 13 -5
17 -19 13 -10 -3 -21 -1 -24 4 -3 5 7 8 21 7 22 -1 27 -6 27 -25z m-243 -21
c-6 -6 -7 0 -4 19 5 21 7 23 10 9 2 -10 0 -22 -6 -28z m68 22 c0 -5 -7 -7 -15
-4 -8 4 -15 8 -15 10 0 2 7 4 15 4 8 0 15 -4 15 -10z m120 0 c0 -5 -7 -7 -15
-4 -8 4 -15 8 -15 10 0 2 7 4 15 4 8 0 15 -4 15 -10z m129 0 c-6 -5 -18 -6
-26 -3 -19 8 -16 11 13 11 17 0 22 -3 13 -8z m120 0 c-6 -5 -19 -6 -27 -2 -10
3 -13 1 -8 -6 4 -7 1 -15 -8 -18 -9 -3 -14 -9 -12 -13 3 -4 -5 -8 -17 -8 -18
-2 -17 1 8 17 17 11 26 20 22 20 -5 0 -6 4 -3 9 3 5 17 9 32 9 17 0 22 -3 13
-8z m-418 -33 c-10 -9 -11 -8 -5 6 3 10 9 15 12 12 3 -3 0 -11 -7 -18z m275
11 c5 -7 3 -8 -6 -3 -9 5 -10 2 -6 -13 4 -11 2 -23 -3 -27 -7 -4 -8 1 -4 11 4
11 3 15 -5 10 -6 -3 -14 -1 -18 5 -4 7 -3 9 3 6 6 -4 13 0 17 8 7 18 12 19 22
3z m54 1 c12 -8 11 -9 -5 -5 -16 5 -21 1 -22 -14 -1 -13 2 -18 9 -14 7 4 8 2
4 -5 -16 -26 -28 7 -17 47 2 5 17 1 31 -9z m120 1 c0 -5 -7 -7 -15 -4 -8 4
-15 8 -15 10 0 2 7 4 15 4 8 0 15 -4 15 -10z m-475 -29 c-6 -5 -25 10 -25 20
0 5 6 4 14 -3 8 -7 12 -15 11 -17z m58 12 c-7 -2 -13 -9 -13 -14 0 -6 5 -7 12
-3 7 5 8 3 3 -5 -5 -9 -11 -9 -17 -3 -12 12 -2 32 15 31 9 0 9 -2 0 -6z m147
-9 c0 -2 -7 -4 -15 -4 -8 0 -15 4 -15 10 0 5 7 7 15 4 8 -4 15 -8 15 -10z
m245 -1 c-1 -12 -10 -17 -24 -16 -12 2 -20 -1 -17 -5 2 -4 0 -14 -5 -22 -7
-11 -8 -8 -5 10 2 18 9 24 24 23 15 -2 20 2 16 12 -4 8 -2 15 4 15 6 0 9 -8 7
-17z m-483 -7 c7 4 8 2 4 -4 -4 -6 -13 -9 -21 -6 -8 4 -12 11 -8 17 5 8 8 7
11 -1 2 -7 9 -9 14 -6z m64 -32 c3 -16 2 -26 -1 -23 -3 4 -8 19 -11 35 -3 16
-2 26 1 23 3 -4 8 -19 11 -35z m84 26 c-8 -5 -19 -10 -25 -10 -5 0 -3 5 5 10
8 5 20 10 25 10 6 0 3 -5 -5 -10z m52 -9 c-2 -8 5 -11 20 -6 20 5 21 4 5 -5
-18 -12 -41 -5 -32 10 3 5 -3 11 -12 14 -14 4 -13 4 2 2 11 -1 19 -8 17 -15z
m94 7 c4 -6 3 -8 -4 -4 -7 4 -10 -1 -9 -14 1 -21 12 -27 20 -10 3 6 4 5 3 -2
-4 -20 -29 -15 -32 6 -4 31 9 46 22 24z m-256 -12 c0 -2 -7 -6 -15 -10 -8 -3
-15 -1 -15 4 0 6 7 10 15 10 8 0 15 -2 15 -4z m90 -11 c0 -1 -12 -2 -26 -2
-17 0 -22 2 -13 7 10 7 39 3 39 -5z m38 -2 c-2 -10 -10 -17 -17 -15 -9 2 -11
-3 -8 -13 4 -8 2 -15 -4 -15 -6 0 -9 8 -7 18 2 9 10 16 17 14 9 -2 11 3 8 13
-4 8 -2 15 4 15 6 0 9 -8 7 -17z m176 2 c-4 -8 -8 -15 -10 -15 -2 0 -4 7 -4
15 0 8 4 15 10 15 5 0 7 -7 4 -15z m166 11 c0 -3 -4 -8 -10 -11 -5 -3 -10 -1
-10 4 0 6 5 11 10 11 6 0 10 -2 10 -4z m-257 -27 c-8 -8 -13 -7 -18 2 -5 8 -4
10 3 5 7 -4 12 -2 12 5 0 7 3 9 7 6 4 -4 2 -12 -4 -18z m147 17 c0 -2 -7 -6
-15 -10 -8 -3 -15 -1 -15 4 0 6 7 10 15 10 8 0 15 -2 15 -4z m-398 -16 c2 -3
-5 -16 -15 -30 -9 -13 -17 -20 -17 -16 0 5 7 17 16 27 15 17 15 18 -5 16 -12
-1 -21 -7 -21 -13 0 -7 -7 -14 -15 -18 -13 -5 -13 -3 0 18 13 20 51 31 57 16z
m46 -15 c-3 -3 -9 2 -12 12 -6 14 -5 15 5 6 7 -7 10 -15 7 -18z m139 0 c-1
-14 -6 -25 -12 -24 -5 0 -13 -8 -17 -18 -7 -16 -8 -16 -5 2 2 11 9 19 16 17 6
-1 11 3 10 10 -2 19 0 38 5 38 3 0 4 -11 3 -25z m243 -7 c0 -19 -16 -5 -17 14
-2 18 0 20 7 8 5 -8 10 -18 10 -22z m54 24 c2 -4 -2 -16 -10 -27 -8 -10 -14
-14 -14 -9 0 6 6 16 13 23 10 11 9 13 -5 8 -10 -4 -18 -2 -18 3 0 12 27 13 34
2z m-381 -23 c-4 -15 -8 -17 -14 -8 -6 11 4 28 18 29 0 0 -1 -9 -4 -21z m-61
-13 c6 4 8 2 4 -4 -3 -6 -15 -9 -26 -7 -14 3 -20 -2 -20 -15 0 -13 5 -17 19
-13 10 3 21 1 24 -4 3 -5 -7 -8 -21 -7 -22 1 -27 6 -27 25 0 14 5 23 13 22 6
-2 13 5 13 15 1 16 2 16 6 -1 2 -9 9 -14 15 -11z m180 6 c-3 -10 -1 -13 6 -8
6 3 14 1 18 -6 4 -7 4 -10 -1 -6 -4 4 -13 1 -19 -7 -8 -11 -15 -12 -26 -4 -13
9 -12 10 3 5 19 -6 21 -2 8 23 -7 13 -6 18 4 18 7 0 11 -7 7 -15z m68 3 c0 -2
-9 -3 -19 -2 -11 0 -18 5 -15 9 4 6 34 0 34 -7z m55 6 c-3 -2 3 -10 13 -18 16
-13 15 -13 -3 -4 -43 22 -51 30 -28 28 12 0 20 -3 18 -6z m55 4 c0 -7 -30 -13
-34 -7 -3 4 4 9 15 9 10 1 19 0 19 -2z m103 -10 c-3 -9 -8 -14 -10 -11 -3 3
-2 9 2 15 9 16 15 13 8 -4z m-378 -26 c-4 -5 -12 -9 -18 -8 -9 0 -8 2 1 6 6 2
9 10 6 15 -4 7 -2 8 5 4 6 -4 9 -12 6 -17z m201 -7 c4 -24 -11 -38 -22 -21 -4
7 -3 9 4 5 7 -4 10 1 9 14 -1 21 -17 29 -17 8 0 -6 -3 -9 -6 -5 -9 9 6 29 19
24 5 -1 12 -13 13 -25z m81 -3 c-4 -14 0 -19 14 -19 10 0 18 5 17 12 -2 6 10
13 27 14 20 2 25 0 16 -5 -8 -5 -20 -7 -28 -4 -8 3 -13 0 -11 -8 2 -9 -6 -14
-22 -14 -21 0 -24 4 -22 24 3 16 0 21 -9 16 -8 -5 -10 -4 -5 4 11 17 29 2 23
-20z m-137 6 c0 -8 -4 -15 -10 -15 -5 0 -7 7 -4 15 4 8 8 15 10 15 2 0 4 -7 4
-15z m-321 -5 c-6 -5 -18 -6 -26 -3 -19 8 -16 11 13 11 17 0 22 -3 13 -8z
m131 0 c-18 -12 -30 -13 -30 -2 0 4 10 9 22 9 18 2 20 0 8 -7z m-170 -10 c8
-5 11 -10 5 -10 -5 0 -17 5 -25 10 -8 5 -10 10 -5 10 6 0 17 -5 25 -10z m-40
-10 c0 -5 -4 -10 -10 -10 -5 0 -10 5 -10 10 0 6 5 10 10 10 6 0 10 -4 10 -10z
m95 -20 c-4 -13 0 -17 17 -16 18 1 23 -4 23 -24 0 -26 -26 -36 -31 -12 -1 7 0
8 3 2 8 -16 19 -12 20 9 1 13 -5 18 -20 17 -17 -1 -21 4 -20 22 2 15 -1 21 -9
16 -7 -4 -8 -3 -4 5 11 17 28 2 21 -19z m158 2 c-2 -15 2 -20 12 -16 8 4 15 2
15 -4 0 -6 -8 -9 -17 -7 -11 1 -17 10 -16 22 1 12 -5 19 -16 20 -14 1 -17 -4
-14 -17 3 -10 1 -20 -4 -23 -6 -4 -9 34 -4 50 1 2 11 1 24 -1 15 -2 21 -10 20
-24z m77 14 c-1 -5 4 -13 12 -18 10 -8 10 -9 -2 -5 -8 2 -14 10 -12 17 2 8 -3
10 -13 7 -8 -4 -15 -2 -15 4 0 6 7 9 16 7 8 -2 14 -7 14 -12z m46 -18 c-1 -12
-9 -24 -17 -26 -8 -2 -10 0 -4 5 15 12 19 47 4 37 -8 -4 -10 -3 -5 5 11 17 26
3 22 -21z m37 15 c-4 -10 -2 -14 5 -9 6 3 14 1 18 -6 4 -7 4 -10 -1 -6 -4 4
-13 0 -20 -9 -9 -13 -14 -13 -20 -3 -6 9 -4 11 5 5 10 -6 12 -4 7 9 -4 10 -5
22 -1 27 9 15 14 10 7 -8z m66 5 c-3 -27 1 -39 13 -32 6 4 8 3 4 -4 -3 -6 -15
-9 -26 -7 -14 3 -20 -2 -20 -14 0 -12 7 -17 23 -17 17 1 22 -4 21 -22 -1 -16
3 -22 12 -18 8 3 14 1 14 -5 0 -6 -8 -9 -17 -7 -12 2 -18 12 -17 26 1 18 -3
22 -20 20 -17 -2 -21 2 -21 22 0 15 5 24 13 22 7 -1 12 3 11 10 -2 20 1 38 6
38 3 0 5 -6 4 -12z m-179 -33 c0 -5 -5 -3 -10 5 -5 8 -10 20 -10 25 0 6 5 3
10 -5 5 -8 10 -19 10 -25z m-240 11 c0 -20 -17 -29 -26 -15 -5 8 -3 9 6 4 10
-6 12 -4 7 8 -3 10 -2 17 3 17 6 0 10 -6 10 -14z m97 -8 c2 -17 0 -19 -7 -8
-5 8 -6 18 -4 22 8 12 10 10 11 -14z m363 12 c0 -5 -7 -7 -15 -4 -8 4 -15 8
-15 10 0 2 7 4 15 4 8 0 15 -4 15 -10z m95 -7 c-1 -12 -10 -17 -24 -16 -12 2
-20 -1 -17 -5 2 -4 0 -14 -5 -22 -7 -11 -8 -8 -5 10 2 18 9 24 24 23 15 -2 20
2 16 12 -4 8 -2 15 4 15 6 0 9 -8 7 -17z m-418 1 c-3 -3 -12 -4 -19 -1 -8 3
-5 6 6 6 11 1 17 -2 13 -5z m-184 -17 c-3 -5 -14 -7 -24 -4 -13 4 -19 0 -19
-13 0 -13 6 -17 19 -13 10 3 21 1 24 -4 3 -5 -6 -8 -21 -7 -44 2 -44 49 1 49
14 0 23 -4 20 -8z m305 -13 c0 -17 -3 -22 -8 -13 -5 6 -6 18 -3 26 8 19 11 16
11 -13z m-386 -26 c-6 -6 -7 0 -4 19 5 21 7 23 10 9 2 -10 0 -22 -6 -28z m108
11 c0 -6 -4 -7 -10 -4 -5 3 -10 11 -10 16 0 6 5 7 10 4 6 -3 10 -11 10 -16z
m40 6 c0 -8 -2 -15 -4 -15 -2 0 -6 7 -10 15 -3 8 -1 15 4 15 6 0 10 -7 10 -15z
m115 4 c11 -16 1 -19 -13 -3 -7 8 -8 14 -3 14 5 0 13 -5 16 -11z m39 -4 c-4
-8 -8 -15 -10 -15 -2 0 -4 7 -4 15 0 8 4 15 10 15 5 0 7 -7 4 -15z m176 -1 c0
-2 -7 -4 -15 -4 -8 0 -15 4 -15 10 0 5 7 7 15 4 8 -4 15 -8 15 -10z m120 0 c0
-2 -7 -4 -15 -4 -8 0 -15 4 -15 10 0 5 7 7 15 4 8 -4 15 -8 15 -10z m-249 -14
c6 0 7 5 3 12 -5 7 -3 8 5 3 9 -5 9 -11 3 -17 -12 -12 -32 -2 -31 15 0 9 2 9
6 0 2 -7 9 -13 14 -13z m72 -21 c-4 -4 -15 -4 -23 2 -12 9 -12 10 3 5 15 -5
17 -2 12 17 -5 20 -5 20 6 4 6 -11 7 -23 2 -28z m81 15 c3 -8 2 -12 -4 -9 -6
3 -10 10 -10 16 0 14 7 11 14 -7z m122 -20 c3 -16 2 -26 -1 -23 -3 4 -8 19
-11 35 -3 16 -2 26 1 23 3 -4 8 -19 11 -35z m-612 1 c-18 -15 -18 -16 6 -13
21 3 25 -1 25 -21 0 -14 -7 -26 -15 -28 -9 -3 -11 -1 -5 4 14 12 19 47 5 38
-6 -4 -18 -4 -27 -1 -12 5 -13 9 -3 21 7 8 17 15 23 15 6 0 2 -7 -9 -15z m53
-7 c2 -17 0 -19 -7 -8 -5 8 -6 18 -4 22 8 12 10 10 11 -14z m113 12 c8 -5 11
-10 5 -10 -5 0 -17 5 -25 10 -8 5 -10 10 -5 10 6 0 17 -5 25 -10z m41 -11
c-12 -10 -22 -22 -21 -26 0 -4 -9 -8 -20 -8 -11 0 -20 5 -19 10 0 6 -10 13
-23 17 -22 7 -22 7 2 5 14 -1 24 -8 23 -15 -2 -6 6 -12 18 -12 11 0 17 5 14
10 -3 6 1 13 9 16 9 3 14 9 11 13 -2 4 3 8 12 8 13 0 11 -4 -6 -18z m84 12
c-3 -2 3 -10 13 -18 16 -13 15 -13 -3 -4 -43 22 -51 30 -28 28 12 0 20 -3 18
-6z m40 -9 c-3 -3 -11 0 -18 7 -9 10 -8 11 6 5 10 -3 15 -9 12 -12z m140 7
c11 -16 1 -19 -13 -3 -7 8 -8 14 -3 14 5 0 13 -5 16 -11z m-380 -9 c3 -6 -1
-7 -9 -4 -18 7 -21 14 -7 14 6 0 13 -4 16 -10z m339 -2 c-5 -8 -2 -9 9 -5 10
3 17 2 17 -3 0 -12 -27 -13 -34 -1 -3 4 -3 11 1 15 10 10 15 7 7 -6z m-159
-28 c0 -19 -5 -24 -25 -24 -16 0 -26 6 -28 17 -2 9 1 17 7 17 6 0 8 -6 5 -13
-3 -8 3 -13 16 -13 26 0 22 28 -5 38 -17 6 -16 7 5 5 19 -2 25 -8 25 -27z
m117 1 c-2 -14 0 -21 6 -17 16 10 24 -12 12 -31 -9 -16 -10 -15 -5 5 5 16 3
22 -7 20 -8 -2 -13 6 -12 20 0 15 -5 22 -18 22 -10 0 -17 -6 -15 -12 1 -7 -9
-14 -23 -15 l-25 -2 25 8 c14 5 21 9 17 10 -5 1 -5 6 -2 12 4 5 17 9 28 7 17
-2 21 -9 19 -27z m93 -5 c-10 -14 -22 -23 -28 -19 -6 4 -8 0 -5 -9 4 -8 2 -21
-3 -29 -5 -9 -7 -4 -5 16 1 17 7 29 13 28 5 -1 16 9 23 22 7 14 15 23 17 21 3
-2 -3 -16 -12 -30z m111 2 c-2 -17 -9 -22 -25 -21 -12 2 -20 -1 -17 -5 2 -4 0
-14 -5 -22 -7 -11 -8 -8 -5 10 3 19 9 24 25 23 11 -2 20 1 20 5 -2 14 1 32 6
32 3 0 3 -10 1 -22z m-476 -2 c0 -20 -17 -29 -26 -15 -5 8 -3 9 6 4 10 -6 12
-4 7 8 -3 10 -2 17 3 17 6 0 10 -6 10 -14z m315 -4 c-3 -3 -11 0 -18 7 -9 10
-8 11 6 5 10 -3 15 -9 12 -12z m105 10 c0 -5 -7 -9 -15 -9 -8 0 -15 4 -15 9 0
4 7 8 15 8 8 0 15 -4 15 -8z m120 -2 c0 -5 -7 -7 -15 -4 -8 4 -15 8 -15 10 0
2 7 4 15 4 8 0 15 -4 15 -10z m-588 -14 c7 4 8 2 4 -5 -9 -13 -26 -5 -25 12 0
9 2 8 6 -1 2 -6 10 -9 15 -6z m59 -27 c-5 -13 -10 -19 -10 -12 -1 15 10 45 15
40 3 -2 0 -15 -5 -28z m80 -2 c-5 -5 -17 -4 -28 2 -16 11 -16 11 4 6 19 -5 22
-3 17 12 -5 15 -4 15 5 3 6 -8 6 -19 2 -23z m85 17 c-5 -12 -1 -14 17 -9 19 5
20 4 4 -5 -21 -13 -38 -5 -30 15 3 8 7 15 10 15 3 0 2 -7 -1 -16z m200 0 c-5
-12 -1 -14 17 -9 19 5 20 4 4 -5 -21 -13 -38 -5 -30 15 3 8 7 15 10 15 3 0 2
-7 -1 -16z m204 6 c0 -5 -6 -7 -14 -4 -9 4 -13 -2 -12 -18 1 -18 -4 -23 -22
-21 -13 2 -21 -1 -18 -5 2 -4 0 -14 -5 -22 -7 -11 -8 -8 -5 10 2 18 9 24 24
23 14 -2 19 3 17 15 -1 9 0 20 2 25 6 10 33 9 33 -3z m-620 -48 c0 -1 -9 2
-20 8 -11 6 -20 15 -20 20 0 6 9 2 20 -7 11 -10 20 -19 20 -21z m20 17 c0 -6
-4 -7 -10 -4 -5 3 -10 11 -10 16 0 6 5 7 10 4 6 -3 10 -11 10 -16z m280 6 c0
-8 -2 -15 -4 -15 -2 0 -6 7 -10 15 -3 8 -1 15 4 15 6 0 10 -7 10 -15z m257 9
c-2 -3 -17 -7 -33 -10 -17 -2 -24 -1 -17 4 13 8 58 14 50 6z m-377 -15 c0 -5
5 -7 12 -3 7 4 8 3 4 -4 -4 -6 -13 -9 -21 -5 -17 6 -20 23 -5 23 6 0 10 -5 10
-11z m-80 -9 c0 -5 -4 -10 -10 -10 -5 0 -10 5 -10 10 0 6 5 10 10 10 6 0 10
-4 10 -10z m160 0 c0 -5 -4 -10 -10 -10 -5 0 -10 5 -10 10 0 6 5 10 10 10 6 0
10 -4 10 -10z m165 -19 c-3 -2 -12 2 -22 10 -15 12 -16 12 -10 -3 3 -10 2 -18
-3 -18 -11 0 -14 23 -4 33 3 3 14 1 25 -6 10 -6 16 -13 14 -16z m-285 -1 c0
-5 -7 -7 -15 -4 -8 4 -15 8 -15 10 0 2 7 4 15 4 8 0 15 -4 15 -10z m90 6 c0
-2 -7 -6 -15 -10 -8 -3 -15 -1 -15 4 0 6 7 10 15 10 8 0 15 -2 15 -4z m122
-11 c-2 -6 7 -13 20 -17 22 -7 22 -7 -2 -5 -15 2 -24 8 -22 16 2 8 -3 11 -11
8 -8 -3 -20 -1 -28 4 -9 5 -4 7 16 6 17 -1 29 -7 27 -12z m123 -3 c-3 -3 4
-11 16 -17 19 -11 19 -13 5 -18 -10 -4 -15 -3 -11 2 3 5 0 11 -7 13 -6 2 -12
12 -14 21 -1 9 2 14 8 11 5 -3 7 -9 3 -12z m145 14 c0 -3 -4 -8 -10 -11 -5 -3
-10 -1 -10 4 0 6 5 11 10 11 6 0 10 -2 10 -4z m-600 -16 c8 -5 11 -10 5 -10
-5 0 -17 5 -25 10 -8 5 -10 10 -5 10 6 0 17 -5 25 -10z m-41 -12 c-3 -27 1
-39 13 -32 6 4 8 3 4 -4 -3 -6 -15 -9 -26 -7 -14 3 -20 -2 -20 -14 0 -10 7
-17 18 -17 9 1 18 -3 20 -9 2 -5 13 -15 24 -21 23 -12 34 -49 19 -59 -5 -3
-13 0 -17 6 -4 7 -3 9 4 5 6 -4 10 1 9 13 0 11 -12 24 -25 30 -13 6 -20 16
-16 22 4 7 -2 9 -17 7 -20 -2 -24 1 -24 22 0 15 5 24 13 22 7 -1 12 3 11 10
-2 20 1 38 6 38 3 0 5 -6 4 -12z m94 -17 c-2 -15 1 -20 9 -15 7 4 8 3 4 -5
-12 -18 -28 -2 -20 21 4 13 2 18 -4 14 -6 -3 -13 -2 -16 3 -4 5 2 8 11 6 12
-1 17 -10 16 -24z m40 12 c-5 -12 -3 -14 8 -8 11 6 12 5 2 -5 -7 -8 -16 -11
-19 -7 -7 6 2 37 10 37 3 0 2 -7 -1 -17z m79 -12 c-2 -14 0 -21 6 -17 6 4 13
2 16 -3 4 -5 -2 -8 -11 -7 -11 2 -18 12 -17 25 0 13 -5 21 -16 21 -11 0 -16
-8 -16 -21 1 -16 -6 -23 -24 -25 -18 -3 -21 -2 -10 5 8 5 18 7 23 4 5 -3 8 3
7 13 -4 32 -1 36 23 32 17 -2 21 -8 19 -27z m44 4 c3 -17 -12 -20 -21 -5 -3 6
-1 10 5 10 6 0 8 6 4 13 -4 6 -3 8 1 4 5 -4 10 -14 11 -22z m64 15 c-8 -5 -18
-6 -22 -4 -4 3 -7 -5 -5 -17 1 -16 -4 -22 -23 -25 -18 -3 -21 -2 -10 5 8 5 18
7 24 4 5 -4 7 1 3 11 -9 23 -3 31 25 33 17 2 19 0 8 -7z m294 2 c2 -4 -2 -16
-10 -27 -8 -10 -14 -14 -14 -9 0 6 6 16 13 23 10 11 9 13 -5 8 -10 -4 -18 -2
-18 3 0 12 27 13 34 2z m-661 -37 c-7 -21 -12 -19 -10 4 0 11 5 18 9 15 4 -3
5 -11 1 -19z m107 11 c0 -20 -17 -29 -26 -15 -5 8 -3 9 6 4 10 -6 12 -4 7 8
-3 10 -2 17 3 17 6 0 10 -6 10 -14z m274 -1 c-4 -10 0 -13 15 -10 11 2 24 -1
27 -7 4 -7 2 -8 -4 -4 -7 4 -12 5 -12 2 0 -2 -3 -12 -6 -21 -4 -10 -2 -15 7
-13 15 3 22 -39 8 -48 -5 -3 -17 0 -26 6 -16 10 -16 10 2 5 16 -4 21 0 22 15
1 11 -4 19 -10 17 -7 -1 -11 8 -10 20 2 13 -2 22 -9 20 -7 -1 -14 6 -16 16 -2
9 1 17 7 17 6 0 8 -7 5 -15z m141 6 c-3 -2 3 -10 13 -18 16 -13 15 -13 -3 -4
-43 22 -51 30 -28 28 12 0 20 -3 18 -6z m90 -1 c-3 -5 -12 -10 -18 -10 -7 0
-6 4 3 10 19 12 23 12 15 0z m68 -5 c-3 -9 -8 -14 -10 -11 -3 3 -2 9 2 15 9
16 15 13 8 -4z m-177 -33 c4 -24 -11 -38 -22 -21 -4 7 -3 9 4 5 7 -4 10 1 9
14 -1 21 -17 29 -17 8 0 -6 -3 -9 -6 -5 -9 9 6 29 19 24 5 -1 12 -13 13 -25z
m84 2 c0 -8 -4 -14 -10 -14 -5 0 -6 7 -3 17 5 12 3 14 -7 8 -9 -5 -11 -4 -6 4
9 14 26 5 26 -15z m-140 1 c0 -8 -4 -15 -10 -15 -5 0 -7 7 -4 15 4 8 8 15 10
15 2 0 4 -7 4 -15z m-360 -16 c0 -6 -4 -7 -10 -4 -5 3 -10 11 -10 16 0 6 5 7
10 4 6 -3 10 -11 10 -16z m40 6 c0 -8 -4 -15 -8 -15 -5 0 -9 7 -9 15 0 8 4 15
9 15 4 0 8 -7 8 -15z m60 -2 c0 -3 -7 -2 -16 1 -12 4 -14 1 -9 -13 7 -24 -6
-33 -25 -19 -12 8 -11 9 4 4 14 -5 17 -2 12 10 -8 21 1 34 19 27 8 -3 15 -7
15 -10z m180 2 c0 -8 -4 -15 -8 -15 -5 0 -9 7 -9 15 0 8 4 15 9 15 4 0 8 -7 8
-15z m289 5 c-6 -5 -18 -6 -26 -3 -8 3 -13 0 -11 -8 2 -8 -7 -14 -22 -16 l-25
-2 25 8 c14 5 21 9 17 10 -20 2 5 19 29 19 17 0 22 -3 13 -8z m-334 -20 c-5
-16 -3 -19 12 -14 15 5 15 4 3 -5 -19 -13 -33 0 -24 22 9 24 17 21 9 -3z
m-321 -6 c3 -8 2 -12 -4 -9 -6 3 -10 10 -10 16 0 14 7 11 14 -7z m246 6 c0 -5
-4 -10 -10 -10 -5 0 -10 5 -10 10 0 6 5 10 10 10 6 0 10 -4 10 -10z m213 -7
c-4 -10 -2 -14 5 -9 6 3 14 1 18 -6 4 -7 4 -10 -1 -6 -4 4 -13 0 -20 -9 -9
-13 -14 -13 -20 -3 -6 9 -4 11 5 5 10 -6 12 -4 7 9 -4 10 -5 22 -1 27 9 15 14
10 7 -8z m66 5 c-3 -27 1 -39 13 -32 6 4 8 3 4 -4 -3 -6 -15 -9 -26 -7 -14 3
-20 -2 -20 -15 0 -13 5 -17 19 -13 22 6 37 -12 20 -23 -8 -5 -9 -3 -4 5 5 9 0
12 -16 9 -20 -2 -24 1 -24 22 0 15 5 24 13 22 7 -1 12 3 11 10 -2 20 1 38 6
38 3 0 5 -6 4 -12z m-340 -24 c-11 -14 -10 -16 11 -12 21 2 25 -1 25 -22 0
-16 -5 -24 -14 -22 -9 2 -11 -3 -7 -15 6 -14 4 -15 -5 -6 -13 13 -3 37 12 28
5 -4 9 3 9 15 0 12 -4 18 -10 15 -6 -4 -18 -4 -26 -1 -12 5 -12 9 -2 25 7 11
14 18 17 16 2 -3 -2 -12 -10 -21z m115 -16 c-7 -11 -34 -10 -34 2 0 5 8 7 18
3 14 -5 15 -3 5 8 -7 7 -13 17 -13 23 0 5 6 1 14 -9 8 -11 12 -23 10 -27z
m-324 17 c0 -9 6 -12 15 -9 8 4 15 2 15 -4 0 -6 -7 -9 -16 -8 -19 3 -41 36
-24 36 5 0 10 -7 10 -15z m150 -6 c17 -13 18 -17 5 -10 -33 17 -51 31 -40 31
6 0 21 -10 35 -21z m237 2 c-16 -10 -28 -22 -28 -27 1 -5 -11 -10 -26 -11 -19
-2 -24 0 -14 6 8 5 20 7 28 4 8 -3 13 -1 11 5 -3 11 31 41 47 42 6 0 -3 -9
-18 -19z m203 9 c0 -5 -7 -7 -15 -4 -8 4 -15 8 -15 10 0 2 7 4 15 4 8 0 15 -4
15 -10z m95 -7 c-1 -12 -10 -17 -24 -16 -12 2 -20 -1 -17 -5 2 -4 0 -14 -5
-22 -7 -11 -8 -8 -5 10 2 18 9 24 24 23 15 -2 20 2 16 12 -4 8 -2 15 4 15 6 0
9 -8 7 -17z m-617 -18 c-3 -3 -9 2 -12 12 -6 14 -5 15 5 6 7 -7 10 -15 7 -18z
m-22 -17 c-3 -24 -28 -32 -32 -10 -1 7 0 8 3 2 5 -12 24 -14 22 -2 -2 14 1 32
6 32 3 0 3 -10 1 -22z m249 -19 c15 1 12 -22 -3 -25 -7 -1 -8 0 -2 3 14 7 13
24 -2 21 -7 -2 -14 8 -15 22 -2 24 -2 24 5 2 4 -13 12 -23 17 -23z m-105 21
c0 -5 -8 -10 -17 -10 -15 0 -16 2 -3 10 19 12 20 12 20 0z m213 -5 c-3 -10 0
-15 8 -13 8 2 14 -3 14 -11 0 -8 -6 -15 -13 -17 -7 -1 -8 0 -2 3 14 7 13 24
-2 21 -6 -2 -14 5 -16 15 -2 9 1 17 7 17 6 0 8 -7 4 -15z m77 -1 c0 -2 -7 -4
-15 -4 -8 0 -15 4 -15 10 0 5 7 7 15 4 8 -4 15 -8 15 -10z m120 0 c0 -2 -7 -4
-15 -4 -8 0 -15 4 -15 10 0 5 7 7 15 4 8 -4 15 -8 15 -10z m110 12 c0 -3 -4
-8 -10 -11 -5 -3 -10 -1 -10 4 0 6 5 11 10 11 6 0 10 -2 10 -4z m-569 -39
c-10 -9 -11 -8 -5 6 3 10 9 15 12 12 3 -3 0 -11 -7 -18z m243 7 c3 -8 2 -12
-4 -9 -6 3 -10 10 -10 16 0 14 7 11 14 -7z m122 -20 c3 -16 2 -26 -1 -23 -3 4
-8 19 -11 35 -3 16 -2 26 1 23 3 -4 8 -19 11 -35z m120 0 c3 -16 2 -26 -1 -23
-3 4 -8 19 -11 35 -3 16 -2 26 1 23 3 -4 8 -19 11 -35z m59 27 c3 -5 0 -13 -6
-17 -8 -5 -9 -3 -4 6 6 10 4 12 -8 7 -10 -3 -17 -2 -17 3 0 13 27 13 35 1z
m-675 -21 c0 -5 -4 -10 -10 -10 -5 0 -10 5 -10 10 0 6 5 10 10 10 6 0 10 -4
10 -10z m120 -15 c0 -2 -5 -7 -12 -11 -7 -4 -8 -3 -4 4 4 7 1 12 -8 12 -9 0
-16 5 -16 10 0 7 6 7 20 0 11 -6 20 -13 20 -15z m43 18 c-20 -7 -15 -19 7 -20
13 -1 18 2 14 9 -4 7 -2 8 5 4 6 -4 9 -12 6 -17 -6 -9 -40 -7 -51 3 -9 9 5 28
19 27 9 0 9 -2 0 -6z m80 -13 c-10 -11 -19 -20 -21 -20 -1 0 2 9 8 20 6 11 15
20 20 20 6 0 2 -9 -7 -20z m112 10 c3 -6 -1 -7 -9 -4 -18 7 -21 14 -7 14 6 0
13 -4 16 -10z m228 3 c-7 -2 -13 -9 -13 -14 0 -5 6 -8 13 -6 7 1 12 -8 12 -23
-1 -19 -6 -25 -21 -23 -13 1 -20 -4 -21 -18 -1 -12 3 -17 9 -13 7 4 8 2 4 -5
-11 -18 -26 -3 -22 22 2 15 10 21 23 20 12 -1 19 5 20 17 1 13 -4 18 -17 15
-11 -2 -23 1 -26 7 -4 6 -3 8 3 5 6 -4 13 0 17 8 3 8 11 15 18 14 10 0 10 -2
1 -6z m113 -13 c0 -12 -4 -16 -9 -11 -5 5 -6 14 -3 20 10 15 12 14 12 -9z
m-382 -2 c-5 -8 -2 -9 9 -5 10 3 17 2 17 -3 0 -12 -27 -13 -34 -1 -3 4 -3 11
1 15 10 10 15 7 7 -6z m120 0 c-5 -8 -2 -9 9 -5 10 3 17 2 17 -3 0 -12 -27
-13 -34 -1 -3 4 -3 11 1 15 10 10 15 7 7 -6z m-399 -29 c0 -19 -5 -24 -22 -23
-13 1 -23 -4 -23 -12 0 -8 -5 -14 -10 -14 -7 0 -7 6 0 19 6 12 18 18 29 16 14
-3 19 2 18 16 -1 20 -17 27 -17 7 0 -6 -3 -9 -6 -5 -9 9 6 29 19 24 7 -2 12
-14 12 -28z m41 19 c4 -7 3 -8 -4 -4 -7 4 -12 2 -12 -5 0 -7 -3 -10 -6 -6 -6
5 3 27 11 27 2 0 7 -5 11 -12z m175 -11 c-10 -9 -11 -8 -5 6 3 10 9 15 12 12
3 -3 0 -11 -7 -18z m105 -9 c-2 -16 -10 -22 -24 -21 -15 2 -20 -2 -16 -12 4
-8 2 -15 -4 -15 -6 0 -9 8 -7 18 1 11 10 16 24 15 11 -2 20 1 20 5 -2 14 1 32
6 32 3 0 3 -10 1 -22z m120 -14 c-3 -9 -11 -12 -18 -8 -7 5 -9 2 -6 -8 4 -8 2
-21 -3 -29 -5 -9 -7 -4 -5 16 1 17 8 29 14 28 7 -2 12 7 13 20 0 12 3 16 6 9
3 -7 2 -20 -1 -28z m-342 11 c-4 -8 -8 -15 -10 -15 -2 0 -4 7 -4 15 0 8 4 15
10 15 5 0 7 -7 4 -15z m96 -1 c0 -2 -7 -4 -15 -4 -8 0 -15 4 -15 10 0 5 7 7
15 4 8 -4 15 -8 15 -10z m70 8 c0 -5 -7 -9 -15 -9 -8 0 -15 4 -15 9 0 4 7 8
15 8 8 0 15 -4 15 -8z m120 -2 c0 -5 -7 -7 -15 -4 -8 4 -15 8 -15 10 0 2 7 4
15 4 8 0 15 -4 15 -10z m120 0 c0 -5 -7 -7 -15 -4 -8 4 -15 8 -15 10 0 2 7 4
15 4 8 0 15 -4 15 -10z m120 0 c0 -5 -7 -6 -17 -3 -11 4 -14 3 -9 -5 4 -7 1
-15 -8 -18 -9 -3 -14 -9 -12 -13 3 -4 -5 -8 -17 -8 -18 -2 -17 1 8 17 17 11
26 20 22 20 -5 0 -5 5 -2 10 8 13 35 13 35 0z m-560 -10 c0 -5 -7 -7 -15 -4
-8 4 -15 8 -15 10 0 2 7 4 15 4 8 0 15 -4 15 -10z m70 -33 c-8 -9 -9 -7 -4 7
5 13 4 17 -4 12 -6 -3 -14 -1 -18 5 -4 8 -3 9 4 5 7 -4 12 -1 12 6 0 8 5 5 11
-5 8 -14 8 -22 -1 -30z m-113 14 c0 -11 -5 -18 -9 -15 -4 3 -5 11 -1 19 7 21
12 19 10 -4z m203 9 c0 -5 -4 -10 -10 -10 -5 0 -10 5 -10 10 0 6 5 10 10 10 6
0 10 -4 10 -10z m255 -15 c-1 -14 -5 -27 -8 -30 -4 -3 -5 -2 -2 2 3 3 -3 12
-13 20 -9 8 -12 12 -6 9 7 -3 14 1 18 9 8 22 12 18 11 -10z m185 15 c0 -5 -6
-7 -14 -4 -9 4 -13 -2 -12 -18 1 -18 -4 -23 -22 -21 -13 2 -21 -1 -18 -5 2 -4
0 -14 -5 -22 -7 -11 -8 -8 -5 10 2 18 9 24 24 23 14 -2 19 3 17 15 -1 9 0 20
2 25 6 10 33 9 33 -3z m-591 -20 c-6 -5 -18 -6 -26 -3 -19 8 -16 11 13 11 17
0 22 -3 13 -8z m126 -10 c0 -15 -41 -24 -50 -11 -3 5 0 13 6 17 7 4 9 3 5 -4
-4 -7 1 -10 14 -9 21 1 27 12 10 20 -6 3 -5 4 2 3 7 -2 13 -9 13 -16z m48 13
c-7 -2 -13 -9 -13 -14 0 -6 4 -8 8 -5 4 2 14 0 22 -5 12 -7 10 -8 -7 -6 -12 2
-25 6 -29 9 -9 9 5 28 19 27 9 0 9 -2 0 -6z m132 -3 c13 -6 15 -9 5 -9 -8 0
-22 4 -30 9 -18 12 -2 12 25 0z m-342 -23 c-3 -5 -14 -7 -24 -4 -13 4 -19 0
-19 -13 0 -13 6 -17 19 -13 10 3 21 1 24 -4 3 -5 -6 -8 -21 -7 -44 2 -44 49 1
49 14 0 23 -4 20 -8z m79 -6 c-2 -8 3 -11 11 -8 8 3 20 1 28 -4 10 -6 6 -8
-13 -6 -15 1 -27 7 -27 12 0 6 -10 13 -23 17 -22 7 -22 7 2 5 15 -2 24 -8 22
-16z m241 1 c-2 -6 6 -11 16 -9 11 1 20 -2 20 -7 -1 -5 12 -17 27 -27 25 -16
26 -18 7 -16 -12 0 -20 4 -17 8 2 4 -3 10 -12 13 -8 3 -12 10 -9 16 3 5 -2 9
-12 7 -10 -1 -19 3 -20 8 -1 6 -12 13 -25 17 -22 7 -22 7 2 5 14 -1 24 -8 23
-15z m93 6 c4 -6 3 -8 -4 -4 -7 4 -10 -1 -9 -14 1 -21 12 -27 20 -10 3 6 4 5
3 -2 -4 -20 -29 -15 -32 6 -4 31 9 46 22 24z m-380 -25 c-3 9 -1 17 4 17 11 0
13 -23 3 -33 -8 -8 -33 12 -33 26 0 6 7 2 16 -9 13 -16 15 -16 10 -1z m137 -2
c-9 -11 -20 -18 -25 -15 -4 3 -7 -3 -5 -13 1 -10 -2 -19 -8 -20 -5 -1 -13 -12
-17 -25 -7 -22 -7 -22 -5 2 1 14 8 24 15 23 6 -2 11 5 9 15 -1 9 2 17 6 17 5
0 13 8 18 18 6 9 14 17 19 17 6 0 2 -9 -7 -19z m115 2 c-2 -10 -10 -17 -17
-15 -9 2 -11 -3 -8 -13 4 -8 2 -15 -4 -15 -6 0 -9 8 -7 18 2 9 10 16 17 14 9
-2 11 3 8 13 -4 8 -2 15 4 15 6 0 9 -8 7 -17z m176 2 c-4 -8 -8 -15 -10 -15
-2 0 -4 7 -4 15 0 8 4 15 10 15 5 0 7 -7 4 -15z m166 11 c0 -3 -4 -8 -10 -11
-5 -3 -10 -1 -10 4 0 6 5 11 10 11 6 0 10 -2 10 -4z m-113 -12 c-3 -3 -12 -4
-19 -1 -8 3 -5 6 6 6 11 1 17 -2 13 -5z m-573 -20 c3 -8 2 -12 -4 -9 -6 3 -10
10 -10 16 0 14 7 11 14 -7z m117 -15 c-5 -13 -10 -19 -10 -12 -1 15 10 45 15
40 3 -2 0 -15 -5 -28z m127 5 c0 -17 -3 -22 -8 -13 -5 6 -6 18 -3 26 8 19 11
16 11 -13z m119 1 c-1 -14 -5 -24 -9 -23 -4 2 -14 -6 -23 -17 -14 -19 -16 -19
-28 -3 -8 10 -17 15 -20 12 -3 -3 -11 4 -17 16 -7 13 -7 20 -2 16 6 -3 13 0
16 6 3 7 3 2 0 -11 -4 -15 -2 -21 4 -17 6 4 16 -2 21 -11 11 -17 11 -17 22 0
5 9 15 15 20 11 6 -3 10 0 8 7 -2 20 0 39 5 39 3 0 4 -11 3 -25z m211 0 c2 -1
-5 -6 -15 -9 -9 -4 -14 -4 -10 0 4 4 -1 13 -11 21 -15 12 -14 13 8 2 14 -6 26
-13 28 -14z m32 -7 c0 -19 -16 -5 -17 14 -2 18 0 20 7 8 5 -8 10 -18 10 -22z
m54 24 c2 -4 -2 -16 -10 -27 -8 -10 -14 -14 -14 -9 0 6 6 16 13 23 10 11 9 13
-5 8 -10 -4 -18 -2 -18 3 0 12 27 13 34 2z m-504 -39 c-11 -17 -11 -17 -6 0 3
10 6 24 7 30 0 9 2 9 5 0 3 -7 0 -20 -6 -30z m-178 8 c-1 -8 7 -11 20 -9 19 2
23 -2 23 -21 0 -14 -7 -26 -15 -28 -9 -3 -11 -1 -5 4 18 14 16 40 -2 39 -10
-1 -19 3 -20 8 -1 5 -7 13 -15 18 -10 8 -10 9 2 5 8 -2 14 -10 12 -16z m65 -3
c2 -17 0 -19 -7 -8 -5 8 -6 18 -4 22 8 12 10 10 11 -14z m356 5 c-4 -10 -2
-14 5 -9 6 3 14 1 18 -6 4 -7 4 -10 -1 -6 -4 4 -13 1 -19 -7 -8 -11 -15 -12
-26 -4 -12 9 -12 10 4 5 14 -5 17 -2 12 10 -3 9 -4 20 0 25 9 15 14 10 7 -8z
m122 8 c-3 -2 3 -10 13 -18 16 -13 15 -13 -3 -4 -43 22 -51 30 -28 28 12 0 20
-3 18 -6z m158 -6 c-3 -9 -8 -14 -10 -11 -3 3 -2 9 2 15 9 16 15 13 8 -4z
m-593 -5 c0 -5 -7 -7 -15 -4 -8 4 -15 8 -15 10 0 2 7 4 15 4 8 0 15 -4 15 -10z
m416 -28 c4 -24 -11 -38 -22 -21 -4 7 -3 9 4 5 7 -4 10 1 9 14 -1 21 -17 29
-17 8 0 -6 -3 -9 -6 -5 -9 9 6 29 19 24 5 -1 12 -13 13 -25z m81 -3 c-4 -14 0
-19 14 -19 10 0 18 5 17 12 -2 6 10 13 27 14 20 2 25 0 16 -5 -8 -5 -20 -7
-28 -4 -8 3 -13 0 -11 -8 2 -9 -6 -14 -22 -14 -21 0 -24 4 -22 24 3 16 0 21
-9 16 -8 -5 -10 -4 -5 4 11 17 29 2 23 -20z m-137 6 c0 -8 -4 -15 -10 -15 -5
0 -7 7 -4 15 4 8 8 15 10 15 2 0 4 -7 4 -15z m-190 -5 c-18 -12 -30 -13 -30
-2 0 4 10 9 22 9 18 2 20 0 8 -7z m-198 -14 c7 4 8 2 4 -5 -9 -13 -26 -5 -25
12 0 9 2 8 6 -1 2 -6 10 -9 15 -6z m81 -24 c-2 -15 2 -20 12 -16 8 4 15 2 15
-4 0 -6 -8 -9 -17 -7 -12 1 -17 10 -16 24 2 12 -1 20 -5 17 -4 -2 -14 0 -22 5
-11 7 -8 8 10 5 18 -2 24 -9 23 -24z m80 10 c-2 -7 6 -12 17 -12 11 0 19 6 18
13 -2 7 7 12 22 12 19 -1 25 -6 23 -21 -1 -13 4 -20 17 -20 13 0 18 7 17 20
-1 14 4 20 18 21 11 0 21 -4 22 -9 1 -5 7 -13 15 -18 10 -8 10 -9 -2 -5 -8 2
-14 9 -13 15 2 6 -6 10 -17 9 -13 -1 -18 -8 -17 -21 2 -15 -4 -20 -23 -20 -19
0 -25 5 -23 20 1 13 -4 20 -17 21 -13 1 -18 -4 -15 -17 2 -11 -1 -23 -7 -26
-6 -4 -8 -2 -4 4 4 6 -3 12 -16 14 -13 2 -22 9 -20 17 2 8 -3 11 -13 8 -8 -4
-15 -2 -15 4 0 6 8 9 18 7 9 -2 16 -10 15 -16z m203 -14 c-1 -12 -9 -24 -17
-26 -8 -2 -10 0 -4 5 15 12 19 47 4 37 -8 -4 -10 -3 -5 5 11 17 26 3 22 -21z
m37 15 c-4 -10 -2 -14 5 -9 6 3 14 1 18 -6 4 -7 4 -10 -1 -6 -4 4 -13 0 -20
-9 -9 -13 -14 -13 -20 -3 -6 9 -4 11 5 5 10 -6 12 -4 7 9 -4 10 -5 22 -1 27 9
15 14 10 7 -8z m66 5 c-3 -27 1 -39 13 -32 6 4 8 3 4 -4 -3 -6 -15 -9 -26 -7
-14 3 -20 -2 -20 -14 0 -12 7 -17 23 -17 17 1 22 -4 21 -22 -1 -16 3 -22 12
-18 8 3 14 1 14 -5 0 -6 -8 -9 -17 -7 -12 2 -18 12 -17 26 1 18 -3 22 -20 20
-17 -2 -21 2 -21 22 0 15 5 24 13 22 7 -1 12 3 11 10 -2 20 1 38 6 38 3 0 5
-6 4 -12z m-459 -46 c0 -1 -9 2 -20 8 -11 6 -20 15 -20 20 0 6 9 2 20 -7 11
-10 20 -19 20 -21z m26 21 c-3 9 -1 17 4 17 11 0 13 -23 3 -33 -8 -8 -33 12
-33 26 0 6 7 2 16 -9 13 -16 15 -16 10 -1z m474 7 c0 -5 -7 -7 -15 -4 -8 4
-15 8 -15 10 0 2 7 4 15 4 8 0 15 -4 15 -10z m95 -7 c-1 -12 -10 -17 -24 -16
-12 2 -20 -1 -17 -5 2 -4 0 -14 -5 -22 -7 -11 -8 -8 -5 10 2 18 9 24 24 23 15
-2 20 2 16 12 -4 8 -2 15 4 15 6 0 9 -8 7 -17z m-479 -35 c-3 -24 -28 -32 -32
-10 -1 7 0 8 3 2 5 -12 24 -14 22 -2 -2 14 1 32 6 32 3 0 3 -10 1 -22z m-56
-3 c0 -8 -4 -15 -8 -15 -5 0 -9 7 -9 15 0 8 4 15 9 15 4 0 8 -7 8 -15z m115 4
c11 -16 1 -19 -13 -3 -7 8 -8 14 -3 14 5 0 13 -5 16 -11z m39 -4 c-4 -8 -8
-15 -10 -15 -2 0 -4 7 -4 15 0 8 4 15 10 15 5 0 7 -7 4 -15z m86 0 c0 -8 -2
-15 -4 -15 -2 0 -6 7 -10 15 -3 8 -1 15 4 15 6 0 10 -7 10 -15z m90 -1 c0 -2
-7 -4 -15 -4 -8 0 -15 4 -15 10 0 5 7 7 15 4 8 -4 15 -8 15 -10z m120 0 c0 -2
-7 -4 -15 -4 -8 0 -15 4 -15 10 0 5 7 7 15 4 8 -4 15 -8 15 -10z m110 12 c0
-3 -4 -8 -10 -11 -5 -3 -10 -1 -10 4 0 6 5 11 10 11 6 0 10 -2 10 -4z m-600
-16 c0 -5 -7 -7 -15 -4 -8 4 -15 8 -15 10 0 2 7 4 15 4 8 0 15 -4 15 -10z
m313 -31 c-4 -4 -15 -4 -23 2 -12 9 -12 10 3 5 15 -5 17 -2 12 17 -5 20 -5 20
6 4 6 -11 7 -23 2 -28z m-354 19 c-3 -27 1 -39 13 -32 6 4 8 3 4 -4 -3 -6 -15
-9 -26 -7 -14 3 -20 -2 -20 -14 0 -12 7 -17 23 -17 12 1 21 -4 20 -11 -2 -7 4
-13 12 -13 8 0 15 -5 15 -10 0 -7 -7 -7 -20 0 -11 6 -18 16 -14 21 4 7 -3 9
-17 7 -20 -2 -24 1 -24 22 0 15 5 24 13 22 7 -1 12 3 11 10 -2 20 1 38 6 38 3
0 5 -6 4 -12z m294 0 c-2 -5 -13 -8 -23 -8 -10 0 -21 3 -23 8 -3 4 8 7 23 7
15 0 26 -3 23 -7z m141 -4 c3 -8 2 -12 -4 -9 -6 3 -10 10 -10 16 0 14 7 11 14
-7z m122 -20 c3 -16 2 -26 -1 -23 -3 4 -8 19 -11 35 -3 16 -2 26 1 23 3 -4 8
-19 11 -35z m-603 -9 c-7 -21 -12 -19 -10 4 0 11 5 18 9 15 4 -3 5 -11 1 -19z
m157 15 c8 -5 11 -10 5 -10 -5 0 -17 5 -25 10 -8 5 -10 10 -5 10 6 0 17 -5 25
-10z m46 -9 c-15 -10 -27 -22 -27 -27 1 -5 -8 -9 -19 -9 -11 0 -20 5 -19 10 0
6 -10 13 -23 17 -22 7 -22 7 2 5 14 -1 24 -8 23 -15 -2 -6 6 -12 18 -12 11 0
17 5 14 10 -3 6 1 13 9 16 9 3 14 9 12 13 -3 4 5 8 17 8 19 2 18 0 -7 -16z
m79 10 c-3 -2 3 -10 13 -18 16 -13 15 -13 -3 -4 -43 22 -51 30 -28 28 12 0 20
-3 18 -6z m180 -2 c11 -16 1 -19 -13 -3 -7 8 -8 14 -3 14 5 0 13 -5 16 -11z
m-41 -11 c-5 -8 -2 -9 9 -5 10 3 17 2 17 -3 0 -12 -27 -13 -34 -1 -3 4 -3 11
1 15 10 10 15 7 7 -6z m-159 -28 c0 -19 -5 -24 -25 -24 -16 0 -26 6 -28 17 -2
9 1 17 7 17 6 0 8 -6 5 -13 -3 -8 3 -13 16 -13 26 0 22 28 -5 38 -17 6 -16 7
5 5 19 -2 25 -8 25 -27z m117 1 c-2 -14 0 -21 6 -17 16 10 24 -12 12 -31 -9
-16 -10 -15 -5 5 5 16 3 22 -7 20 -8 -2 -13 6 -12 20 0 15 -5 22 -18 22 -10 0
-17 -6 -15 -12 1 -7 -9 -14 -23 -15 l-25 -2 25 8 c14 5 21 9 17 10 -5 1 -5 6
-2 12 4 5 17 9 28 7 17 -2 21 -9 19 -27z m93 -5 c-10 -14 -22 -23 -28 -19 -6
4 -8 0 -5 -9 4 -8 2 -21 -3 -29 -5 -9 -7 -4 -5 16 1 17 7 29 13 28 5 -1 16 9
23 22 7 14 15 23 17 21 3 -2 -3 -16 -12 -30z m111 2 c-2 -17 -9 -22 -25 -21
-12 2 -20 -1 -17 -5 2 -4 0 -14 -5 -22 -7 -11 -8 -8 -5 10 3 19 9 24 25 23 11
-2 20 1 20 5 -2 14 1 32 6 32 3 0 3 -10 1 -22z m-490 -5 c-3 9 -1 17 4 17 11
0 13 -23 3 -33 -8 -8 -33 12 -33 26 0 6 7 2 16 -9 13 -16 15 -16 10 -1z m329
-1 c-3 -3 -11 0 -18 7 -9 10 -8 11 6 5 10 -3 15 -9 12 -12z m105 10 c0 -5 -7
-9 -15 -9 -8 0 -15 4 -15 9 0 4 7 8 15 8 8 0 15 -4 15 -8z m120 -2 c0 -5 -7
-7 -15 -4 -8 4 -15 8 -15 10 0 2 7 4 15 4 8 0 15 -4 15 -10z m-646 -26 c3 -8
2 -12 -4 -9 -6 3 -10 10 -10 16 0 14 7 11 14 -7z m117 -15 c-5 -13 -10 -19
-10 -12 -1 15 10 45 15 40 3 -2 0 -15 -5 -28z m80 -2 c-5 -5 -17 -4 -28 2 -16
11 -16 11 4 6 19 -5 22 -3 17 12 -5 15 -4 15 5 3 6 -8 6 -19 2 -23z m85 17
c-5 -12 -1 -14 17 -9 19 5 20 4 4 -5 -21 -13 -38 -5 -30 15 3 8 7 15 10 15 3
0 2 -7 -1 -16z m200 0 c-5 -12 -1 -14 17 -9 19 5 20 4 4 -5 -21 -13 -38 -5
-30 15 3 8 7 15 10 15 3 0 2 -7 -1 -16z m204 6 c0 -5 -6 -7 -14 -4 -9 4 -13
-2 -12 -18 1 -18 -4 -23 -22 -21 -13 2 -21 -1 -18 -5 2 -4 0 -14 -5 -22 -7
-11 -8 -8 -5 10 2 18 9 24 24 23 14 -2 19 3 17 15 -1 9 0 20 2 25 6 10 33 9
33 -3z m-710 -25 c0 -9 6 -12 15 -9 8 4 15 2 15 -4 0 -6 -7 -9 -16 -8 -19 3
-41 36 -24 36 5 0 10 -7 10 -15z m390 0 c0 -8 -2 -15 -4 -15 -2 0 -6 7 -10 15
-3 8 -1 15 4 15 6 0 10 -7 10 -15z m257 9 c-2 -3 -17 -7 -33 -10 -17 -2 -24
-1 -17 4 13 8 58 14 50 6z m-579 -29 c-3 -3 -9 2 -12 12 -6 14 -5 15 5 6 7 -7
10 -15 7 -18z m202 14 c0 -5 5 -7 12 -3 7 4 8 3 4 -4 -4 -6 -13 -9 -21 -5 -17
6 -20 23 -5 23 6 0 10 -5 10 -11z m-80 -9 c0 -5 -4 -10 -10 -10 -5 0 -10 5
-10 10 0 6 5 10 10 10 6 0 10 -4 10 -10z m160 0 c0 -5 -4 -10 -10 -10 -5 0
-10 5 -10 10 0 6 5 10 10 10 6 0 10 -4 10 -10z m165 -19 c-3 -2 -12 2 -22 10
-15 12 -16 12 -10 -3 3 -10 2 -18 -3 -18 -11 0 -14 23 -4 33 3 3 14 1 25 -6
10 -6 16 -13 14 -16z m-469 -3 c-3 -24 -28 -32 -32 -10 -1 7 0 8 3 2 5 -12 24
-14 22 -2 -2 14 1 32 6 32 3 0 3 -10 1 -22z m184 2 c0 -5 -7 -7 -15 -4 -8 4
-15 8 -15 10 0 2 7 4 15 4 8 0 15 -4 15 -10z m90 6 c0 -2 -7 -6 -15 -10 -8 -3
-15 -1 -15 4 0 6 7 10 15 10 8 0 15 -2 15 -4z m122 -11 c-2 -6 7 -13 20 -17
22 -7 22 -7 -2 -5 -15 2 -24 8 -22 16 2 8 -3 11 -11 8 -8 -3 -20 -1 -28 4 -9
5 -4 7 16 6 17 -1 29 -7 27 -12z m123 -3 c-3 -3 4 -11 16 -17 19 -11 19 -13 5
-18 -10 -4 -15 -3 -11 2 3 5 0 11 -7 13 -6 2 -12 12 -14 21 -1 9 2 14 8 11 5
-3 7 -9 3 -12z m145 14 c0 -3 -4 -8 -10 -11 -5 -3 -10 -1 -10 4 0 6 5 11 10
11 6 0 10 -2 10 -4z m-547 -45 c-2 -15 1 -20 9 -15 7 4 8 3 4 -5 -12 -18 -28
-2 -20 21 4 13 2 18 -4 14 -6 -3 -13 -2 -16 3 -4 5 2 8 11 6 12 -1 17 -10 16
-24z m40 12 c-5 -12 -3 -14 8 -8 11 6 12 5 2 -5 -7 -8 -16 -11 -19 -7 -7 6 2
37 10 37 3 0 2 -7 -1 -17z m79 -12 c-2 -14 0 -21 6 -17 6 4 13 2 16 -3 4 -5
-2 -8 -11 -7 -11 2 -18 12 -17 25 0 13 -5 21 -16 21 -11 0 -16 -8 -16 -21 1
-16 -6 -23 -24 -25 -18 -3 -21 -2 -10 5 8 5 18 7 23 4 5 -3 8 3 7 13 -4 32 -1
36 23 32 17 -2 21 -8 19 -27z m44 4 c3 -17 -12 -20 -21 -5 -3 6 -1 10 5 10 6
0 8 6 4 13 -4 6 -3 8 1 4 5 -4 10 -14 11 -22z m64 15 c-8 -5 -18 -6 -22 -4 -4
3 -7 -5 -5 -17 1 -16 -4 -22 -23 -25 -18 -3 -21 -2 -10 5 8 5 18 7 24 4 5 -4
7 1 3 11 -9 23 -3 31 25 33 17 2 19 0 8 -7z m294 2 c2 -4 -2 -16 -10 -27 -8
-10 -14 -14 -14 -9 0 6 6 16 13 23 10 11 9 13 -5 8 -10 -4 -18 -2 -18 3 0 12
27 13 34 2z m-609 -21 c-3 -2 -16 -6 -28 -8 -15 -2 -18 0 -9 5 14 9 45 12 37
3z m53 -8 c-2 -10 -13 -17 -30 -17 -14 -1 -24 2 -21 7 3 5 14 6 25 4 14 -4 18
-2 14 9 -3 8 -1 14 5 14 6 0 9 -7 7 -17z m276 2 c-4 -10 0 -13 15 -10 11 2 24
-1 27 -7 4 -7 2 -8 -4 -4 -7 4 -12 5 -12 2 0 -2 -3 -12 -6 -21 -4 -10 -2 -15
7 -13 15 3 22 -39 8 -48 -5 -3 -17 0 -26 6 -16 10 -16 10 2 5 16 -4 21 0 22
15 1 11 -4 19 -10 17 -7 -1 -11 8 -10 20 2 13 -2 22 -9 20 -7 -1 -14 6 -16 16
-2 9 1 17 7 17 6 0 8 -7 5 -15z m141 6 c-3 -2 3 -10 13 -18 16 -13 15 -13 -3
-4 -43 22 -51 30 -28 28 12 0 20 -3 18 -6z m90 -1 c-3 -5 -12 -10 -18 -10 -7
0 -6 4 3 10 19 12 23 12 15 0z m68 -5 c-3 -9 -8 -14 -10 -11 -3 3 -2 9 2 15 9
16 15 13 8 -4z m-677 -23 c1 -7 0 -8 -3 -2 -8 17 -19 11 -20 -10 -1 -13 2 -18
9 -14 7 4 8 2 4 -5 -4 -6 -12 -9 -17 -6 -7 5 -7 20 0 53 2 9 25 -6 27 -16z
m500 -10 c4 -24 -11 -38 -22 -21 -4 7 -3 9 4 5 7 -4 10 1 9 14 -1 21 -17 29
-17 8 0 -6 -3 -9 -6 -5 -9 9 6 29 19 24 5 -1 12 -13 13 -25z m84 2 c0 -8 -4
-14 -10 -14 -5 0 -6 7 -3 17 5 12 3 14 -7 8 -9 -5 -11 -4 -6 4 9 14 26 5 26
-15z m-546 1 c3 -8 1 -15 -4 -15 -6 0 -10 7 -10 15 0 8 2 15 4 15 2 0 6 -7 10
-15z m406 0 c0 -8 -4 -15 -10 -15 -5 0 -7 7 -4 15 4 8 8 15 10 15 2 0 4 -7 4
-15z m-365 -24 c-3 -6 -10 -9 -15 -6 -5 3 -8 -3 -7 -14 1 -14 8 -19 21 -18 14
1 20 -4 21 -18 0 -11 -4 -20 -8 -20 -5 0 -15 -12 -23 -26 -12 -24 -54 -37 -54
-16 0 4 0 12 0 17 0 6 5 10 11 10 8 0 7 -5 -2 -16 -11 -14 -10 -15 7 -12 19 3
34 16 34 31 0 5 -5 5 -12 1 -6 -4 -8 -3 -4 4 3 6 15 9 26 7 13 -3 18 2 17 15
-1 13 -8 18 -21 17 -15 -2 -20 4 -21 23 0 16 5 24 14 22 9 -2 11 3 7 15 -6 14
-4 15 5 6 6 -6 8 -16 4 -22z m45 14 c0 -8 -4 -15 -8 -15 -5 0 -9 7 -9 15 0 8
4 15 9 15 4 0 8 -7 8 -15z m60 -2 c0 -3 -7 -2 -16 1 -12 4 -14 1 -9 -13 7 -24
-6 -33 -25 -19 -12 8 -11 9 4 4 14 -5 17 -2 12 10 -8 21 1 34 19 27 8 -3 15
-7 15 -10z m180 2 c0 -8 -4 -15 -8 -15 -5 0 -9 7 -9 15 0 8 4 15 9 15 4 0 8
-7 8 -15z m289 5 c-6 -5 -18 -6 -26 -3 -8 3 -13 0 -11 -8 2 -8 -7 -14 -22 -16
l-25 -2 25 8 c14 5 21 9 17 10 -20 2 5 19 29 19 17 0 22 -3 13 -8z m-334 -20
c-5 -16 -3 -19 12 -14 15 5 15 4 3 -5 -19 -13 -33 0 -24 22 9 24 17 21 9 -3z
m-75 0 c0 -5 -4 -10 -10 -10 -5 0 -10 5 -10 10 0 6 5 10 10 10 6 0 10 -4 10
-10z m213 -7 c-4 -10 -2 -14 5 -9 6 3 14 1 18 -6 4 -7 4 -10 -1 -6 -4 4 -13 0
-20 -9 -9 -13 -14 -13 -20 -3 -6 9 -4 11 5 5 10 -6 12 -4 7 9 -4 10 -5 22 -1
27 9 15 14 10 7 -8z m66 5 c-3 -27 1 -39 13 -32 6 4 8 3 4 -4 -3 -6 -15 -9
-26 -7 -14 3 -20 -2 -20 -15 0 -13 5 -17 19 -13 22 6 37 -12 20 -23 -8 -5 -9
-3 -4 5 5 9 0 12 -16 9 -20 -2 -24 1 -24 22 0 15 5 24 13 22 7 -1 12 3 11 10
-2 20 1 38 6 38 3 0 5 -6 4 -12z m-340 -24 c-11 -14 -10 -16 11 -12 21 2 25
-1 25 -22 0 -16 -5 -24 -14 -22 -10 2 -12 -4 -7 -25 5 -23 4 -25 -5 -10 -12
21 -4 51 11 42 5 -3 10 3 10 15 0 12 -4 18 -10 15 -6 -4 -18 -4 -26 -1 -12 5
-12 9 -2 25 7 11 14 18 17 16 2 -3 -2 -12 -10 -21z m115 -16 c-7 -11 -34 -10
-34 2 0 5 8 7 18 3 14 -5 15 -3 5 8 -7 7 -13 17 -13 23 0 5 6 1 14 -9 8 -11
12 -23 10 -27z m-274 22 c11 -7 11 -10 2 -10 -7 0 -10 -5 -6 -12 4 -7 3 -8 -5
-4 -6 4 -9 11 -6 16 3 4 -1 11 -7 13 -7 3 -8 6 -3 6 6 0 17 -4 25 -9z m100
-11 c17 -13 18 -17 5 -10 -33 17 -51 31 -40 31 6 0 21 -10 35 -21z m237 2
c-16 -10 -28 -22 -28 -27 1 -5 -11 -10 -26 -11 -19 -2 -24 0 -14 6 8 5 20 7
28 4 8 -3 13 -1 11 5 -3 11 31 41 47 42 6 0 -3 -9 -18 -19z m203 9 c0 -5 -7
-7 -15 -4 -8 4 -15 8 -15 10 0 2 7 4 15 4 8 0 15 -4 15 -10z m95 -7 c-1 -12
-10 -17 -24 -16 -12 2 -20 -1 -17 -5 2 -4 0 -14 -5 -22 -7 -11 -8 -8 -5 10 2
18 9 24 24 23 15 -2 20 2 16 12 -4 8 -2 15 4 15 6 0 9 -8 7 -17z m-390 -56 c6
-1 9 -10 8 -19 -2 -10 3 -17 10 -15 7 1 12 -8 12 -23 0 -20 -4 -24 -23 -22
-14 2 -21 -1 -20 -9 2 -7 -5 -15 -14 -17 -10 -2 -18 1 -18 7 0 6 7 8 15 4 10
-3 15 0 13 8 -2 9 5 14 20 13 15 0 22 5 22 17 0 12 -6 17 -20 14 -11 -2 -23 1
-26 7 -4 6 -3 8 3 5 6 -4 14 0 17 9 8 22 8 24 -6 22 -7 -2 -14 8 -15 22 -2 24
-2 24 5 2 4 -13 12 -24 17 -25z m-225 23 c0 -5 -8 -10 -17 -10 -15 0 -16 2 -3
10 19 12 20 12 20 0z m120 0 c0 -5 -8 -10 -17 -10 -15 0 -16 2 -3 10 19 12 20
12 20 0z m213 -5 c-3 -10 0 -15 8 -13 9 2 13 -5 12 -19 -2 -13 2 -22 9 -20 7
1 14 -6 16 -15 2 -10 -1 -18 -7 -18 -6 0 -8 7 -4 15 3 10 0 15 -8 13 -9 -2
-13 5 -12 19 2 13 -2 22 -9 20 -7 -1 -14 6 -16 16 -2 9 1 17 7 17 6 0 8 -7 4
-15z m77 -1 c0 -2 -7 -4 -15 -4 -8 0 -15 4 -15 10 0 5 7 7 15 4 8 -4 15 -8 15
-10z m120 0 c0 -2 -7 -4 -15 -4 -8 0 -15 4 -15 10 0 5 7 7 15 4 8 -4 15 -8 15
-10z m110 12 c0 -3 -4 -8 -10 -11 -5 -3 -10 -1 -10 4 0 6 5 11 10 11 6 0 10
-2 10 -4z m-680 -26 c0 -5 -4 -10 -10 -10 -5 0 -10 5 -10 10 0 6 5 10 10 10 6
0 10 -4 10 -10z m114 -14 c-3 -9 -10 -16 -15 -16 -5 0 -4 9 3 20 14 22 21 20
12 -4z m241 -5 c3 -18 1 -20 -15 -11 -26 14 -30 13 -24 -7 5 -15 4 -15 -4 -3
-14 19 -5 32 19 25 15 -5 18 -3 12 12 -3 10 -3 15 1 12 4 -4 8 -16 11 -28z
m124 -11 c0 -10 -3 -8 -9 5 -12 27 -12 43 0 25 5 -8 9 -22 9 -30z m116 11 c3
-18 1 -20 -15 -11 -26 14 -30 13 -24 -7 5 -15 4 -15 -4 -3 -14 19 -5 32 19 25
15 -5 18 -3 12 12 -3 10 -3 15 1 12 4 -4 8 -16 11 -28z m60 20 c3 -5 0 -13 -6
-17 -8 -5 -9 -3 -4 6 6 10 4 12 -8 7 -10 -3 -17 -2 -17 3 0 13 27 13 35 1z
m-682 -31 c3 -11 3 -20 1 -20 -2 0 -8 9 -14 20 -6 11 -7 20 -2 20 6 0 12 -9
15 -20z m177 10 c0 -5 -2 -10 -4 -10 -3 0 -8 5 -11 10 -3 6 -1 10 4 10 6 0 11
-4 11 -10z m85 0 c-3 -5 -11 -10 -16 -10 -6 0 -7 5 -4 10 3 6 11 10 16 10 6 0
7 -4 4 -10z m220 0 c3 -6 -1 -7 -10 -4 -11 5 -14 2 -9 -12 5 -15 4 -16 -4 -4
-11 15 -7 30 8 30 5 0 12 -4 15 -10z m71 -23 c13 -1 37 -27 25 -27 -5 0 -14 6
-18 14 -4 8 -12 15 -18 15 -5 0 -11 5 -13 13 -3 11 -2 11 6 0 5 -8 13 -14 18
-15z m120 3 c5 0 10 -6 12 -14 2 -9 -1 -16 -7 -16 -6 0 -8 7 -4 15 3 10 1 15
-7 13 -7 -2 -15 4 -17 12 -4 12 -3 12 5 2 5 -8 13 -13 18 -12z m-569 -10 c-1
-10 -3 -17 -6 -15 -2 3 -10 -3 -18 -13 -8 -9 -6 -2 3 16 21 37 23 39 21 12z
m98 -11 c-1 -18 -6 -23 -21 -22 -14 1 -20 -4 -20 -17 0 -15 5 -19 21 -15 18 5
18 5 2 -5 -23 -14 -34 -6 -32 22 2 16 8 22 21 21 13 -1 20 5 21 16 1 14 -4 17
-17 14 -10 -3 -20 -1 -23 4 -3 5 7 8 21 7 22 -1 27 -6 27 -25z m-155 -6 c0 -3
-7 -2 -16 1 -12 5 -14 1 -9 -17 5 -19 4 -20 -5 -4 -13 21 -5 38 15 30 8 -3 15
-7 15 -10z m100 7 c0 -5 -7 -7 -15 -4 -8 4 -15 8 -15 10 0 2 7 4 15 4 8 0 15
-4 15 -10z m120 0 c0 -5 -7 -7 -15 -4 -8 4 -15 8 -15 10 0 2 7 4 15 4 8 0 15
-4 15 -10z m249 0 c-6 -5 -18 -6 -26 -3 -8 3 -13 0 -11 -8 2 -8 -7 -14 -22
-16 l-25 -2 25 8 c14 5 21 9 17 10 -20 2 5 19 29 19 17 0 22 -3 13 -8z m-394
-20 c-3 -5 0 -10 7 -11 10 0 10 -2 1 -6 -7 -2 -13 -9 -13 -14 0 -6 5 -7 12 -3
7 4 8 3 4 -5 -11 -18 -26 -3 -22 22 6 28 5 27 12 27 3 0 2 -4 -1 -10z m110 -6
c-19 -14 -19 -16 -2 -25 9 -6 15 -15 11 -21 -4 -6 2 -8 17 -4 21 6 22 6 6 -5
-14 -8 -22 -8 -30 0 -6 6 -7 11 -2 11 5 0 0 7 -11 15 -19 15 -19 15 0 30 11 8
22 15 25 15 3 0 -3 -8 -14 -16z m149 4 c-3 -5 -10 -6 -15 -3 -5 4 -8 -4 -6
-16 1 -14 -4 -23 -15 -24 -10 -2 -18 1 -18 7 0 6 7 7 16 4 12 -5 15 -2 10 10
-8 20 -1 31 18 31 8 0 13 -4 10 -9z m41 2 c3 -6 -1 -7 -9 -4 -18 7 -21 14 -7
14 6 0 13 -4 16 -10z m125 0 c0 -5 -7 -6 -17 -3 -12 5 -14 3 -8 -7 5 -9 4 -11
-4 -6 -6 4 -9 12 -6 17 8 12 35 12 35 -1z m74 -2 c-3 -5 -10 -6 -15 -3 -5 4
-9 2 -9 -4 0 -5 6 -12 13 -14 9 -4 9 -6 0 -6 -14 -1 -26 16 -19 27 3 5 12 9
20 9 8 0 13 -4 10 -9z m41 2 c3 -6 -1 -7 -9 -4 -18 7 -21 14 -7 14 6 0 13 -4
16 -10z m-590 -41 c6 1 10 -9 10 -21 0 -18 -5 -22 -22 -20 -17 2 -21 -1 -17
-12 3 -9 2 -16 -4 -16 -6 0 -9 8 -7 18 1 10 11 17 24 16 14 0 21 5 21 17 0 12
-6 17 -20 14 -11 -2 -23 1 -26 7 -4 7 -2 8 4 4 8 -5 12 1 13 16 l1 23 6 -23
c4 -13 12 -23 17 -23z m490 22 c-3 -6 -11 -11 -16 -11 -5 0 -4 6 3 14 14 16
24 13 13 -3z m-555 -1 c0 -5 -4 -10 -10 -10 -5 0 -10 5 -10 10 0 6 5 10 10 10
6 0 10 -4 10 -10z m393 -7 c-4 -10 -2 -14 5 -9 16 10 25 -11 12 -31 -9 -16
-10 -15 -5 5 5 15 2 22 -6 20 -7 -2 -15 5 -17 15 -2 9 1 17 7 17 6 0 7 -7 4
-17z m98 -20 c-11 -16 -11 -15 -5 6 4 17 3 21 -6 16 -9 -6 -11 -4 -5 4 5 9 11
9 17 3 7 -7 6 -16 -1 -29z m145 22 c-4 -10 1 -14 16 -12 15 1 22 -5 24 -23 3
-18 2 -21 -5 -10 -5 8 -7 18 -5 22 3 4 -5 7 -17 5 -14 -1 -23 4 -24 16 -2 9 1
17 7 17 6 0 8 -7 4 -15z m-343 -10 c-3 -9 -8 -14 -10 -11 -3 3 -2 9 2 15 9 16
15 13 8 -4z m287 -5 c0 -5 -4 -10 -10 -10 -5 0 -10 5 -10 10 0 6 5 10 10 10 6
0 10 -4 10 -10z m-266 -32 c-3 -4 -1 -8 5 -8 5 0 12 5 14 10 3 6 4 5 3 -2 -5
-23 -29 -14 -33 12 -2 18 -1 21 6 10 5 -8 7 -18 5 -22z m140 17 c3 -8 1 -15
-4 -15 -6 0 -10 7 -10 15 0 8 2 15 4 15 2 0 6 -7 10 -15z m-434 -5 c0 -5 -8
-10 -17 -10 -15 0 -16 2 -3 10 19 12 20 12 20 0z m120 0 c0 -5 -8 -10 -17 -10
-15 0 -16 2 -3 10 19 12 20 12 20 0z m58 -7 c-2 -10 -10 -17 -16 -15 -7 1 -12
-7 -12 -18 0 -11 5 -19 12 -17 6 1 14 -6 16 -15 2 -10 -1 -18 -7 -18 -6 0 -8
7 -4 15 3 10 0 15 -8 13 -9 -2 -14 6 -14 22 0 16 5 24 14 22 8 -2 11 3 8 13
-4 8 -2 15 4 15 6 0 9 -8 7 -17z m176 2 c-4 -8 -8 -15 -10 -15 -2 0 -4 7 -4
15 0 8 4 15 10 15 5 0 7 -7 4 -15z m165 5 c-6 -5 -18 -6 -26 -3 -19 8 -16 11
13 11 17 0 22 -3 13 -8z m81 0 c0 -5 -8 -10 -17 -10 -15 0 -16 2 -3 10 19 12
20 12 20 0z m-42 -25 c-3 -3 -9 2 -12 12 -6 14 -5 15 5 6 7 -7 10 -15 7 -18z
m-492 -16 c-8 -13 -26 -24 -38 -26 -17 -2 -19 -1 -8 6 8 5 17 8 21 6 3 -3 12
7 19 20 7 14 15 23 18 21 2 -3 -3 -15 -12 -27z m131 0 c0 -21 -3 -26 -9 -16
-4 9 -5 22 -2 31 9 23 11 20 11 -15z m220 1 c-3 -13 0 -18 14 -17 12 1 17 8
16 21 -2 15 4 20 23 21 19 0 24 -4 22 -20 -2 -14 3 -21 16 -22 11 -1 18 6 19
18 1 12 -3 17 -9 13 -7 -4 -8 -2 -4 5 11 17 26 3 22 -22 -4 -31 -51 -31 -50 0
0 15 -5 21 -17 20 -12 -1 -17 -8 -16 -21 1 -15 -4 -20 -22 -21 -19 0 -24 5
-25 27 -1 14 2 24 7 21 5 -3 7 -13 4 -23z m223 20 c0 -5 -7 -6 -17 -3 -10 4
-14 2 -9 -5 10 -16 -11 -25 -31 -12 -16 9 -15 10 5 5 12 -4 22 -3 21 2 -3 17
1 23 16 23 8 0 15 -4 15 -10z m-657 -17 c-7 -2 -13 -9 -13 -14 0 -6 5 -7 12
-3 7 5 8 3 3 -5 -5 -9 -11 -9 -17 -3 -12 12 -2 32 15 31 9 0 9 -2 0 -6z m130
-7 c4 -10 1 -13 -9 -9 -15 6 -19 23 -5 23 5 0 11 -7 14 -14z m127 4 c0 -5 -7
-7 -15 -4 -8 4 -15 8 -15 10 0 2 7 4 15 4 8 0 15 -4 15 -10z m100 0 c0 -5 -4
-10 -10 -10 -5 0 -10 5 -10 10 0 6 5 10 10 10 6 0 10 -4 10 -10z m40 6 c0 -2
-7 -7 -16 -10 -8 -3 -12 -2 -9 4 6 10 25 14 25 6z m295 -25 c-3 -6 -10 -9 -15
-6 -5 3 -11 -5 -13 -17 -5 -20 -5 -20 -3 2 1 15 7 24 15 22 9 -2 11 3 7 15 -6
14 -4 15 5 6 6 -6 8 -16 4 -22z m-42 4 c-3 -9 -8 -14 -10 -11 -3 3 -2 9 2 15
9 16 15 13 8 -4z m-557 -21 c-3 -15 -8 -29 -11 -32 -3 -3 -3 5 -1 19 2 13 5
27 5 32 1 4 3 7 6 7 3 0 3 -12 1 -26z m196 18 c-13 -4 -24 -11 -25 -17 -1 -5
-10 -9 -19 -8 -10 2 -17 -3 -15 -9 1 -7 -9 -14 -23 -15 -24 -2 -24 -2 -2 5 13
4 24 12 25 17 1 6 10 9 19 8 10 -2 17 1 17 5 -3 17 2 22 24 21 l22 -1 -23 -6z
m48 -12 c6 -11 8 -20 6 -20 -3 0 -10 9 -16 20 -6 11 -8 20 -6 20 3 0 10 -9 16
-20z m62 13 c-6 -2 -10 -9 -7 -13 3 -5 1 -11 -4 -14 -7 -5 -8 11 -2 32 1 1 7
2 14 1 9 0 9 -2 -1 -6z m-89 -30 c-5 -12 -3 -14 7 -8 9 5 11 4 6 -4 -4 -6 -12
-9 -17 -6 -12 8 -12 35 1 35 5 0 6 -7 3 -17z m122 -1 c-3 -3 -11 0 -18 7 -9
10 -8 11 6 5 10 -3 15 -9 12 -12z m73 2 c5 -9 13 -15 18 -14 5 1 10 -4 12 -12
3 -11 2 -11 -6 0 -5 8 -12 13 -16 12 -4 0 -14 6 -22 15 -9 8 -11 15 -5 15 5 0
14 -7 19 -16z m57 6 c-3 -5 -12 -10 -18 -10 -7 0 -6 4 3 10 19 12 23 12 15 0z
m65 6 c0 -2 -7 -6 -15 -10 -8 -3 -15 -1 -15 4 0 6 7 10 15 10 8 0 15 -2 15 -4z
m-155 -15 c3 -5 0 -13 -6 -17 -7 -4 -9 -3 -5 4 3 5 0 13 -6 15 -9 4 -10 6 -1
6 6 1 14 -3 18 -8z m-341 -13 c-3 -5 -10 -6 -15 -3 -5 4 -9 1 -9 -6 0 -7 -3
-10 -6 -6 -9 9 3 24 20 24 8 0 13 -4 10 -9z m41 2 c3 -6 -1 -7 -9 -4 -18 7
-21 14 -7 14 6 0 13 -4 16 -10z m119 -6 c3 -8 2 -12 -4 -9 -6 3 -10 10 -10 16
0 14 7 11 14 -7z m126 -5 c0 -6 -4 -7 -10 -4 -5 3 -10 11 -10 16 0 6 5 7 10 4
6 -3 10 -11 10 -16z m175 12 c3 -5 0 -13 -6 -17 -8 -5 -9 -3 -4 6 6 10 4 12
-9 7 -10 -4 -15 -3 -11 3 8 13 22 13 30 1z m105 5 c0 -3 -4 -8 -10 -11 -5 -3
-10 -1 -10 4 0 6 5 11 10 11 6 0 10 -2 10 -4z"/>
<path d="M5297 6270 c-36 -36 -56 -64 -51 -71 4 -8 3 -9 -5 -5 -14 9 -43 -12
-35 -25 3 -5 1 -8 -4 -7 -13 4 -212 -194 -205 -205 4 -6 1 -7 -6 -3 -14 9 -42
-24 -34 -38 4 -5 2 -6 -4 -3 -13 8 -106 -87 -96 -98 5 -4 3 -5 -3 -2 -12 7
-77 -55 -69 -66 3 -4 2 -5 -2 -2 -10 8 -93 -77 -86 -88 3 -6 2 -7 -4 -4 -13 8
-136 -117 -126 -128 4 -4 3 -5 -3 -2 -14 8 -67 -46 -57 -58 5 -4 3 -5 -3 -2
-14 8 -47 -26 -37 -38 5 -4 3 -6 -3 -2 -5 3 -27 -11 -47 -33 l-38 -38 98 2
c54 0 104 5 112 10 9 6 12 5 8 -1 -4 -5 12 -10 38 -10 31 -1 43 3 38 11 -5 8
-3 8 8 0 16 -14 127 -13 148 0 9 6 12 5 7 -2 -8 -14 34 -12 53 2 11 8 13 8 8
-1 -5 -8 12 -11 63 -11 45 0 70 4 70 12 0 8 2 8 8 0 10 -15 304 -15 295 0 -4
6 0 5 9 -2 15 -12 17 0 17 140 1 314 -1 828 -3 828 -1 -1 -27 -27 -59 -60z
m-1 -272 c3 -4 -1 -5 -10 -4 -8 1 -18 5 -22 8 -3 4 1 5 10 4 8 -1 18 -5 22 -8z
m-169 -53 c0 -8 -4 -12 -9 -9 -5 3 -6 10 -3 15 9 13 12 11 12 -6z m160 -20 c0
-8 -4 -12 -9 -9 -5 3 -6 10 -3 15 9 13 12 11 12 -6z m-57 -1 c0 -8 -19 -13
-24 -6 -3 5 1 9 9 9 8 0 15 -2 15 -3z m5 -124 c-3 -5 -12 -10 -18 -10 -7 0 -6
4 3 10 19 12 23 12 15 0z m-434 -287 c13 -16 12 -17 -3 -4 -10 7 -18 15 -18
17 0 8 8 3 21 -13z m245 -79 c1 -9 0 -13 -4 -10 -3 4 -7 14 -8 22 -1 9 0 13 4
10 3 -4 7 -14 8 -22z m-66 10 c0 -8 -19 -13 -24 -6 -3 5 1 9 9 9 8 0 15 -2 15
-3z m-13 -69 c0 -8 -4 -12 -9 -9 -5 3 -6 10 -3 15 9 13 12 11 12 -6z"/>
<path d="M4553 4390 c-12 -5 -26 -17 -32 -27 -5 -11 -50 -151 -100 -312 -96
-313 -97 -316 -44 -340 32 -15 78 -14 91 2 6 7 18 41 28 75 l17 63 101 -3 101
-3 17 -64 c10 -36 23 -68 30 -73 20 -13 87 -2 109 18 27 24 26 30 -78 362 -80
258 -90 285 -115 298 -30 16 -91 17 -125 4z m91 -290 c15 -52 29 -103 32 -112
5 -16 -3 -18 -64 -18 l-70 0 30 103 c35 124 38 131 42 126 2 -2 16 -47 30 -99z"/>
<path d="M5193 4391 c-87 -23 -152 -91 -157 -166 -6 -108 37 -164 188 -239 98
-49 122 -72 112 -109 -14 -58 -114 -67 -185 -17 -53 38 -88 41 -113 10 -65
-81 44 -172 209 -173 68 -1 89 3 129 24 71 36 106 91 110 170 6 112 -34 164
-179 235 -49 24 -96 49 -104 55 -18 15 -17 54 2 69 27 22 105 24 155 3 25 -10
51 -18 58 -17 6 1 16 2 20 3 12 2 32 48 32 75 0 24 -19 45 -58 65 -28 15 -176
23 -219 12z"/>
<path d="M5689 4393 c-35 -9 -39 -48 -39 -358 l0 -305 25 -16 c27 -17 98 -15
117 4 5 5 10 91 10 198 0 112 3 182 9 174 4 -8 28 -49 51 -90 41 -71 46 -75
78 -75 33 0 38 5 85 82 l50 82 3 -179 c2 -179 3 -180 27 -196 27 -17 98 -15
117 4 7 7 13 425 8 625 0 29 -37 57 -76 57 -59 0 -85 -24 -149 -136 -32 -57
-61 -104 -64 -104 -4 0 -32 47 -64 104 -32 57 -69 111 -82 120 -23 15 -70 19
-106 9z"/>
<path d="M6469 4393 c-35 -9 -39 -48 -39 -358 0 -303 0 -304 22 -319 27 -19
67 -20 103 -4 28 13 27 0 27 237 0 84 3 149 8 145 4 -5 25 -40 45 -79 50 -93
53 -96 89 -93 32 3 38 11 103 119 l32 54 1 -182 0 -183 25 -16 c26 -17 98 -15
116 3 5 5 10 153 10 328 1 318 1 319 -21 337 -12 10 -37 18 -56 18 -67 0 -78
-11 -190 -207 -10 -18 -21 -33 -24 -33 -3 0 -31 48 -63 105 -33 58 -68 112
-80 120 -20 14 -72 18 -108 8z"/>
<path d="M7355 4391 c-71 -18 -142 -79 -152 -128 -27 -129 16 -194 182 -277
97 -48 121 -72 111 -109 -14 -58 -114 -67 -185 -17 -54 39 -87 41 -112 9 -59
-76 37 -165 185 -173 162 -8 270 78 265 211 -4 108 -54 165 -199 227 -78 34
-100 52 -100 81 0 31 20 45 77 52 38 4 61 0 96 -15 25 -11 55 -18 65 -15 32 8
54 79 34 109 -25 38 -189 66 -267 45z"/>
<path d="M2287 3193 c-4 -3 -7 -91 -7 -195 0 -161 2 -190 15 -195 9 -3 18 -3
21 0 4 3 7 45 8 93 2 71 6 89 21 100 25 19 38 18 66 -5 20 -16 23 -28 24 -100
2 -87 5 -97 30 -88 21 9 21 156 0 197 -25 49 -87 67 -119 34 -19 -18 -18 -20
-21 71 -2 39 -3 76 -4 83 -1 13 -23 17 -34 5z"/>
<path d="M4458 3193 c-3 -4 -4 -93 -4 -198 1 -183 2 -190 21 -190 19 0 20 7
20 195 0 173 -2 195 -17 198 -9 2 -18 -1 -20 -5z"/>
<path d="M5559 3173 c0 -16 0 -56 0 -91 0 -62 0 -63 -22 -47 -35 25 -75 19
-108 -16 -25 -26 -29 -39 -29 -86 0 -84 34 -133 92 -133 13 0 33 7 45 15 19
13 22 13 27 0 3 -8 12 -15 21 -15 17 0 17 -3 16 205 0 208 2 195 -21 195 -15
0 -20 -7 -21 -27z m-21 -181 c27 -27 29 -105 2 -132 -45 -45 -95 -9 -94 71 0
37 5 53 20 64 26 20 50 19 72 -3z"/>
<path d="M7137 3194 c-4 -4 -7 -92 -7 -196 0 -161 2 -190 15 -195 22 -8 26 -1
28 45 2 37 20 72 37 72 4 0 26 -27 49 -60 23 -33 47 -60 52 -60 25 0 17 35
-22 90 l-42 61 37 38 c21 22 35 44 32 50 -13 20 -20 16 -106 -65 l-35 -33 0
127 c-1 105 -3 127 -16 130 -8 1 -18 0 -22 -4z"/>
<path d="M9317 3193 c-2 -4 -3 -93 -3 -198 1 -183 2 -190 21 -190 19 0 20 7
20 195 0 173 -2 195 -17 198 -9 2 -18 -1 -21 -5z"/>
<path d="M1267 3173 c-15 -26 -107 -348 -103 -359 11 -30 36 -14 47 31 l11 45
68 0 68 0 11 -45 c11 -44 36 -61 47 -32 2 7 -19 92 -49 187 -45 150 -56 175
-74 178 -12 2 -23 0 -26 -5z m51 -147 c12 -41 22 -79 22 -85 0 -6 -21 -11 -50
-11 -27 0 -50 5 -50 10 0 19 44 160 50 160 3 0 15 -34 28 -74z"/>
<path d="M3240 3153 c-47 -43 -46 -107 3 -142 11 -8 43 -26 71 -40 46 -23 51
-30 54 -63 2 -28 -2 -40 -20 -52 -31 -22 -70 -20 -101 4 -31 25 -47 25 -47 2
0 -51 105 -80 167 -47 45 24 62 78 42 131 -12 31 -26 44 -84 74 -51 27 -71 43
-73 59 -7 48 52 74 111 50 22 -9 31 -9 40 0 21 22 -27 51 -84 51 -39 0 -55 -5
-79 -27z"/>
<path d="M4748 3163 c-2 -10 -3 -94 -3 -188 1 -162 2 -170 20 -170 19 0 20 9
25 138 l5 138 37 -75 c21 -42 44 -76 51 -76 7 0 26 27 42 60 47 98 51 94 49
-44 -2 -129 3 -153 30 -143 15 6 16 28 14 189 -3 175 -4 183 -23 183 -15 0
-31 -22 -66 -89 l-46 -89 -48 91 c-33 64 -52 92 -65 92 -10 0 -19 -8 -22 -17z"/>
<path d="M6268 3163 c-2 -10 -4 -94 -3 -188 1 -162 2 -170 20 -170 19 0 20 9
25 135 l5 135 36 -70 c20 -38 43 -71 50 -73 9 -1 27 23 47 63 19 36 37 65 40
65 4 0 7 -57 7 -127 0 -121 1 -128 20 -128 19 0 20 8 23 183 2 160 0 183 -14
189 -21 8 -35 -9 -82 -101 l-40 -78 -47 91 c-33 63 -52 91 -65 91 -10 0 -20
-8 -22 -17z"/>
<path d="M8774 3169 c-41 -21 -60 -92 -36 -135 5 -9 40 -33 78 -53 62 -32 69
-39 72 -69 2 -20 -3 -41 -12 -51 -22 -25 -78 -25 -108 -1 -32 25 -48 25 -48 2
0 -51 105 -80 167 -47 44 24 61 81 41 134 -11 29 -26 42 -83 71 -57 29 -71 40
-73 62 -6 47 56 72 113 46 35 -16 57 4 33 29 -20 20 -114 28 -144 12z"/>
<path d="M2092 3161 c-12 -7 -16 -101 -13 -278 1 -57 29 -85 79 -81 45 4 52
31 9 36 -36 4 -45 24 -46 110 l-1 72 40 0 c29 0 40 4 40 15 0 11 -11 15 -39
15 l-38 0 -2 52 c-1 56 -9 72 -29 59z"/>
<path d="M4043 3159 c-15 -15 -5 -39 17 -39 19 0 34 25 24 41 -7 12 -28 11
-41 -2z"/>
<path d="M5697 3156 c-6 -15 11 -36 29 -36 14 0 27 28 18 41 -8 14 -41 11 -47
-5z"/>
<path d="M7692 3161 c-12 -7 -17 -102 -13 -283 1 -52 30 -80 79 -76 43 4 52
31 12 36 -44 6 -49 19 -48 103 l1 79 38 0 c28 0 39 4 39 15 0 11 -11 15 -40
15 l-40 0 2 51 c1 54 -9 73 -30 60z"/>
<path d="M7883 3159 c-15 -15 -5 -39 17 -39 19 0 34 25 24 41 -7 12 -28 11
-41 -2z"/>
<path d="M9772 3161 c-18 -11 -20 -297 -3 -329 13 -24 45 -36 82 -30 34 4 30
32 -4 36 -36 4 -45 24 -46 110 l-1 72 40 0 c29 0 40 4 40 15 0 11 -11 15 -39
15 l-38 0 -2 52 c-1 56 -9 72 -29 59z"/>
<path d="M9958 3158 c-8 -21 2 -38 22 -38 19 0 34 25 24 41 -8 13 -41 11 -46
-3z"/>
<path d="M8474 3046 c-4 -11 -12 -13 -31 -5 -39 15 -70 11 -98 -13 -32 -28
-41 -91 -18 -127 11 -18 13 -26 5 -29 -16 -5 -15 -45 0 -60 9 -9 9 -12 0 -12
-18 0 -33 -37 -26 -65 9 -37 56 -58 116 -53 60 6 88 30 88 74 0 39 -24 59 -85
69 -63 11 -74 15 -69 28 3 8 19 11 43 9 29 -3 44 2 67 21 26 23 29 31 28 86
-1 43 3 61 13 65 8 3 11 10 8 16 -9 15 -35 12 -41 -4z m-33 -43 c19 -23 16
-81 -5 -101 -12 -12 -22 -14 -43 -6 -34 11 -45 50 -27 92 15 37 51 43 75 15z
m23 -235 c14 -24 -18 -58 -56 -58 -34 0 -70 33 -61 56 13 35 95 36 117 2z"/>
<path d="M1507 3043 c-4 -3 -7 -57 -7 -120 0 -93 3 -115 15 -120 24 -9 27 0
30 93 1 71 5 89 20 100 54 40 87 0 90 -106 2 -86 6 -96 30 -87 21 9 21 156 0
197 -26 50 -79 65 -123 34 -20 -14 -22 -14 -22 0 0 16 -21 22 -33 9z"/>
<path d="M1823 3015 c-32 -32 -34 -38 -32 -93 2 -63 9 -78 49 -105 30 -21 62
-22 99 -3 47 25 59 63 52 164 -1 8 -15 27 -32 43 -45 42 -90 40 -136 -6z m107
-27 c42 -45 15 -148 -40 -148 -29 0 -60 47 -56 84 2 17 4 36 5 43 2 19 31 43
51 43 11 0 28 -10 40 -22z"/>
<path d="M2621 3036 c-35 -20 -50 -54 -51 -117 0 -48 4 -60 27 -83 14 -14 37
-29 50 -32 36 -9 96 3 111 23 19 26 -1 37 -41 22 -28 -10 -41 -10 -66 1 -17 7
-31 16 -31 20 0 5 -3 15 -6 24 -5 14 4 16 59 16 87 0 97 5 97 47 0 71 -83 116
-149 79z m90 -37 c35 -35 21 -54 -40 -54 -64 0 -74 13 -37 50 30 30 49 32 77
4z"/>
<path d="M2867 3043 c-4 -3 -7 -57 -7 -120 0 -93 3 -115 15 -120 24 -9 27 0
29 88 1 72 4 83 25 100 13 10 34 19 47 19 17 0 24 6 24 20 0 16 -7 20 -30 20
-17 0 -39 -9 -50 -20 l-20 -20 0 20 c0 19 -20 27 -33 13z"/>
<path d="M3554 3039 c-73 -36 -71 -194 3 -228 49 -22 108 -3 133 44 16 30 16
114 0 144 -22 42 -90 62 -136 40z m86 -49 c14 -14 20 -33 20 -65 0 -109 -110
-113 -115 -4 -4 73 51 113 95 69z"/>
<path d="M3813 3026 c-26 -23 -28 -29 -28 -101 0 -72 2 -78 28 -101 18 -15 41
-24 62 -24 46 0 87 20 83 39 -4 16 -10 16 -70 4 -18 -3 -32 1 -45 14 -18 18
-20 34 -14 116 2 26 49 42 86 28 41 -15 58 3 26 30 -33 27 -93 25 -128 -5z"/>
<path d="M4047 3043 c-4 -3 -7 -57 -7 -120 0 -95 3 -115 16 -120 9 -3 19 -1
23 5 5 8 6 145 2 225 -1 17 -21 23 -34 10z"/>
<path d="M4198 3039 c-10 -5 -18 -17 -18 -26 0 -12 8 -14 43 -9 48 7 75 -6 82
-41 3 -21 0 -23 -35 -23 -55 0 -89 -16 -100 -46 -27 -71 53 -124 118 -78 20
14 22 14 22 0 0 -9 9 -16 20 -16 19 0 20 7 20 90 0 99 -10 132 -47 149 -30 14
-82 14 -105 0z m112 -147 c0 -22 -35 -62 -55 -62 -28 0 -45 13 -45 36 0 28 24
43 68 44 24 0 32 -4 32 -18z"/>
<path d="M5171 3036 c-34 -19 -50 -54 -51 -108 0 -59 14 -90 50 -111 52 -31
140 -16 140 24 0 18 -4 20 -22 14 -54 -17 -74 -16 -98 3 -13 10 -24 26 -26 35
-2 14 8 17 61 17 85 0 95 5 95 47 0 71 -83 116 -149 79z m90 -37 c35 -35 21
-54 -43 -57 -55 -3 -57 -2 -53 20 5 25 39 58 61 58 8 0 23 -9 35 -21z"/>
<path d="M5707 3043 c-4 -3 -7 -57 -7 -120 0 -95 3 -115 16 -120 9 -3 19 -1
23 5 5 8 6 152 2 225 -1 17 -21 23 -34 10z"/>
<path d="M5855 3036 c-26 -19 -13 -51 14 -36 31 16 58 12 81 -12 32 -35 25
-45 -37 -50 -43 -4 -61 -10 -75 -28 -21 -26 -16 -76 10 -96 23 -18 73 -17 100
2 20 14 22 14 22 0 0 -9 9 -16 20 -16 19 0 20 7 20 96 0 92 -1 97 -29 125 -33
32 -92 40 -126 15z m111 -152 c-11 -58 -96 -75 -96 -20 0 32 19 46 62 46 36 0
38 -2 34 -26z"/>
<path d="M6673 3040 c-13 -5 -23 -17 -23 -26 0 -13 7 -15 39 -9 48 8 77 -6 83
-39 5 -22 2 -24 -49 -28 -58 -5 -77 -18 -87 -59 -14 -61 66 -102 122 -63 20
14 22 14 22 0 0 -9 9 -16 20 -16 19 0 20 7 20 96 0 92 -1 97 -29 125 -31 30
-73 37 -118 19z m104 -146 c3 -10 -4 -26 -20 -41 -19 -20 -31 -24 -51 -19 -31
8 -36 49 -8 65 27 16 72 13 79 -5z"/>
<path d="M6927 3043 c-4 -3 -7 -57 -7 -120 0 -93 3 -115 15 -120 24 -9 27 -1
29 87 2 73 5 85 25 101 13 11 34 19 47 19 17 0 24 6 24 20 0 27 -49 27 -78 0
l-22 -21 0 21 c0 19 -19 27 -33 13z"/>
<path d="M7441 3036 c-34 -19 -50 -54 -51 -108 0 -59 14 -90 50 -111 51 -31
140 -16 140 23 0 23 -12 25 -42 9 -31 -16 -83 -3 -96 25 -6 13 -8 27 -5 30 4
3 32 6 64 6 79 0 89 5 89 47 0 71 -83 116 -149 79z m90 -37 c35 -35 21 -54
-43 -57 -54 -3 -57 -2 -53 19 6 29 34 59 57 59 10 0 27 -9 39 -21z"/>
<path d="M7887 3043 c-4 -3 -7 -57 -7 -120 0 -95 3 -115 16 -120 9 -3 19 -1
23 5 5 8 6 145 2 225 -1 17 -21 23 -34 10z"/>
<path d="M8027 3043 c-4 -3 -7 -57 -7 -120 0 -93 3 -115 15 -120 9 -3 18 -3
21 0 3 3 7 44 8 91 3 92 6 101 46 111 45 11 63 -22 65 -115 1 -84 5 -96 30
-87 12 5 15 24 15 87 0 45 -5 91 -11 103 -27 53 -84 72 -127 41 -20 -14 -22
-14 -22 0 0 16 -21 22 -33 9z"/>
<path d="M9074 3039 c-73 -36 -71 -194 3 -228 49 -22 108 -3 132 43 17 31 18
115 2 145 -23 42 -91 62 -137 40z m86 -49 c42 -42 16 -150 -35 -150 -9 0 -27
11 -40 24 -19 19 -23 33 -21 65 5 72 54 103 96 61z"/>
<path d="M9459 3036 c-1 -9 -1 -36 -1 -61 0 -110 1 -116 33 -146 49 -45 119
-36 152 21 12 20 17 52 17 115 0 84 -1 86 -22 83 -21 -3 -23 -8 -23 -85 0 -65
-4 -85 -19 -102 -22 -25 -43 -26 -71 -5 -16 12 -20 30 -25 102 -4 72 -8 87
-22 90 -11 2 -18 -3 -19 -12z"/>
<path d="M9967 3043 c-4 -3 -7 -57 -7 -120 0 -93 3 -115 15 -120 9 -3 18 -3
21 0 5 5 8 160 5 225 -1 21 -20 30 -34 15z"/>
<path d="M10138 3033 c-34 -21 -48 -53 -48 -109 0 -96 67 -148 144 -112 39 17
57 52 57 112 1 63 -11 90 -51 111 -37 19 -68 19 -102 -2z m92 -45 c27 -30 28
-100 0 -128 -27 -27 -55 -25 -79 6 -19 24 -20 37 -12 106 2 14 33 38 51 38 11
0 28 -10 40 -22z"/>
<path d="M10387 3043 c-4 -3 -7 -57 -7 -120 0 -93 3 -115 15 -120 25 -9 27 0
29 93 1 72 5 88 21 100 26 19 49 17 70 -6 14 -15 19 -39 20 -100 2 -86 5 -96
30 -87 21 9 21 156 0 197 -26 50 -79 65 -123 34 -20 -14 -22 -14 -22 0 0 16
-21 22 -33 9z"/>
<path d="M10703 3035 c-12 -8 -24 -29 -28 -46 -8 -38 12 -63 64 -80 46 -14 64
-35 50 -60 -12 -23 -56 -25 -87 -3 -20 14 -23 14 -28 -1 -10 -24 9 -37 63 -42
55 -6 90 15 97 57 6 39 -11 60 -70 86 -30 13 -54 30 -54 39 0 23 36 36 80 29
26 -4 40 -3 40 4 0 31 -90 43 -127 17z"/>
</g>
</svg>
